<svg xmlns="http://www.w3.org/2000/svg" width="1137.9" height="1801.7" viewBox="0 0 1137.9 1801.7"><defs><style>.a06ed676-729f-47ff-ab67-eed166722500{fill:#4e4f4f;}.\36 c16c47c-0981-4f85-a2cc-41e9bc835586{fill:#5e5f5f;}.aaf8fb43-068f-485f-a49c-4827732b9510{fill:#999;}.\35 38a53df-5fe8-4166-84c8-804aad25706c{fill:#aeadae;}.\38 8a176f2-3908-419f-b6b0-f00e21538d5f{fill:#b0b0b0;opacity:0.5;}.\33 acdf54d-24b5-47e3-883d-e4d3385d5b33{fill:#f2dca7;}.\32 6d57cdb-85f1-4b58-9258-f71ca8b093e2,.\38 56c82da-4931-4fbe-849f-c7ebb42b0033{fill:#d8b266;}.\32 6d57cdb-85f1-4b58-9258-f71ca8b093e2{opacity:0.12;}.db30a71a-a1a4-40fd-b1e1-10f6adc1dfef{opacity:0.17;}.d9bc1c05-ce33-4e78-8039-6108e1630e98{fill:#a5a4a4;}.dceccd7d-e38e-43d6-8cd6-2632d314b771{fill:#939393;}.eeb94d34-0e2c-4ee5-95fc-d5248e1a9f4a{fill:#8c8c8c;}</style></defs><title>battleBg_3</title><g id="2a5ce973-2702-462a-8a35-63858de78289" data-name="Layer 2"><g id="8c90ab32-3915-4ad6-95e5-9d4be83dad92" data-name="bg"><rect class="a06ed676-729f-47ff-ab67-eed166722500" width="1137.9" height="444.32"/><rect class="6c16c47c-0981-4f85-a2cc-41e9bc835586" y="97" width="1137.9" height="756.6"/><rect class="aaf8fb43-068f-485f-a49c-4827732b9510" y="312.7" width="1137.9" height="757.6"/><rect class="538a53df-5fe8-4166-84c8-804aad25706c" y="303.2" width="1137.9" height="28.78"/><rect class="88a176f2-3908-419f-b6b0-f00e21538d5f" y="331.6" width="1137.9" height="9.78"/><path class="3acdf54d-24b5-47e3-883d-e4d3385d5b33" d="M5,949.3l-5,1.4v-.3Z"/><path class="3acdf54d-24b5-47e3-883d-e4d3385d5b33" d="M1137.9,825.2v976.5H0V826.4c44,4.6,91.5,4.3,132-.9l10.3-1.4,6.8-1.1c17.1-2.9,33.9-6.9,52.8-7.9,4.8-.3,9.7-.4,14.8-.2h.2c15.5.5,30.2,3.3,45.6,3.8,20.4.7,41.4-2.4,60.5.3l1.5.2c7.3,1.2,13.3,3.1,19.8,4.8,2.5.6,5.2,1.2,8,1.7a114.1,114.1,0,0,0,14,1.4c3.9.2,7.8.2,11.7.1l7.6-.3c9.3-.4,18.8-1.2,28.2-1.6h13.7c40.6.5,77.6,10.7,110.9,19.6,6.8,1.8,14.2,3.6,22.1,5.2s15,2.9,22.8,3.9l8.2,1,5.9.6h.3c13.8,1.1,27,1.1,37.9-1.1h0q3.2-.6,6.1-1.5c6.1-2.2,12-5.3,17.9-8.2,8.2-4,16.4-7.7,25.8-7.9a38,38,0,0,1,8.8.7q9.7,1.9,19.3,3.5l3.8.6L727,843l8,1h0l5.4.6,1.9.2,1.4.2q11.1,1.2,22.2,1.9l13.4.6h.8l10.5.2h1.9l12.7-1.4a87.7,87.7,0,0,1,27.9-3.3l8.6.6h.5l3.4.2c12.1.7,24.1,1,36,.7q11.1-.3,22.2-1.2l2.1-.2h0l5.2-.5,6.5-.7,1.9-.3h0l5.1-.7,1.6-.2c4.7-.7,9.4-1.5,14.2-2.5l3.9-.8,10.4-2.4,1-.2,13.4-3.6a51.3,51.3,0,0,1,8.1-1.9,62.2,62.2,0,0,1,9.8-.6c13.4.2,26.9,4.1,40.5,6a104.9,104.9,0,0,0,11.4,1.1c15.4.5,30.9-2.4,46.6-2.9l12.7.2C1111.4,833.7,1124.6,828.1,1137.9,825.2Z"/><path class="26d57cdb-85f1-4b58-9258-f71ca8b093e2" d="M5,949.3l-5,1.4v-.3Z"/><path class="26d57cdb-85f1-4b58-9258-f71ca8b093e2" d="M1092.6,1502.7l2.6,1.6-10.1-1.5A46.2,46.2,0,0,1,1092.6,1502.7Z"/><g class="db30a71a-a1a4-40fd-b1e1-10f6adc1dfef"><path class="856c82da-4931-4fbe-849f-c7ebb42b0033" d="M1137.9,826.1v177.6c-22.5,3.6-35.2,40.7-97.5,40.6-13,0-25.3,9.3-38.9,8.1-16.8-1.5-124.3,53.8-172.4,50.9-81.3-4.9-162.7,37.2-242,50.2-82.6,13.5-117.9-7.1-119.5-8.5a107.6,107.6,0,0,1-13.9-16.2c-6.3-8.7-12.2-27.9-19.4-35.7-32.7-35.4-81.8,8.5-121.4,21-10.9,3.4-21.8,7.3-32.9,10.9l-12.8,3.9a211,211,0,0,1-23.7,5.4c-17.5,2.9-35.3,2.8-53.2-3.3-26.7-9.2-49.7-30.7-73-49.6a549.9,549.9,0,0,0-68.1-47.2A511.8,511.8,0,0,0,0,1008.7V823.2c45.6,5.3,98.8,6.6,132,3.2l9-1.1,1.2-.4,6.8-1.2c17.1-3.2,33.9-7.4,52.8-8.6,4.8-.3,9.7-.4,14.8-.2h.2c15.5.5,30.2,3.5,45.6,4.1,20.4.8,41.4-2.6,60.5.3l1.5.2c7.3,1.3,13.3,3.4,19.8,5.2,2.5.7,5.2,1.3,8,1.9a105.5,105.5,0,0,0,14,1.5c3.9.2,7.8.2,11.7.1l7.6-.3c9.3-.5,18.8-1.3,28.2-1.7h13.7c40.6.5,77.6,11.6,110.9,21.3,6.8,2,14.2,3.9,22.1,5.7s15,3.1,22.8,4.2l8.2,1.1,5.9.6h.3c13.8,1.2,27,1.1,37.9-1.2h0a59.7,59.7,0,0,0,6.1-1.6c6.1-2.4,12-5.8,17.9-8.9,8.2-4.4,16.4-8.3,25.8-8.6a35.1,35.1,0,0,1,8.8.8q9.7,2.1,19.3,3.8l3.8.7,9.4,1.5,8,1.1h0l5.4.7,1.9.2,1.4.2q11.1,1.3,22.2,2l13.4.7h.8l10.5.2h1.9l12.7-1.5a81.2,81.2,0,0,1,27.9-3.5l8.6.7h.5l3.4.2c12.1.8,24.1,1.1,36,.8q11.1-.3,22.2-1.3l2.1-.2h0l5.2-.5,6.5-.8,1.9-.3h0l5.1-.8,1.6-.3c4.7-.8,9.4-1.7,14.2-2.7l3.9-.8,10.4-2.6,1-.3q6.6-1.8,13.4-3.9a48,48,0,0,1,8.1-2,57.4,57.4,0,0,1,9.8-.6c13.4.2,26.9,4.4,40.5,6.5a96.9,96.9,0,0,0,11.4,1.1c15.4.5,30.9-2.6,46.6-3.1l12.7.2C1111.4,835.3,1124.6,829.2,1137.9,826.1Z"/></g><rect class="d9bc1c05-ce33-4e78-8039-6108e1630e98" x="111" y="629.4" width="162.9" height="45.2"/><rect class="dceccd7d-e38e-43d6-8cd6-2632d314b771" x="178.4" y="583.8" width="162.9" height="45.2"/><rect class="d9bc1c05-ce33-4e78-8039-6108e1630e98" x="359.3" y="444.3" width="116.6" height="32.34"/><rect class="d9bc1c05-ce33-4e78-8039-6108e1630e98" x="827.1" y="523.8" width="162.9" height="45.2"/><polygon class="6c16c47c-0981-4f85-a2cc-41e9bc835586" points="39.6 37.7 30 37.7 30 97 39.6 97 184.2 97 193.7 97 193.7 89.5 193.7 37.7 184.2 37.7 39.6 37.7"/><polygon class="6c16c47c-0981-4f85-a2cc-41e9bc835586" points="273 37.7 263.4 37.7 263.4 97 273 97 417.6 97 427.1 97 427.1 89.5 427.1 37.7 417.6 37.7 273 37.7"/><polygon class="6c16c47c-0981-4f85-a2cc-41e9bc835586" points="494.6 37.7 485.1 37.7 485.1 97 494.6 97 639.3 97 648.8 97 648.8 89.5 648.8 37.7 639.3 37.7 494.6 37.7"/><polygon class="6c16c47c-0981-4f85-a2cc-41e9bc835586" points="713.8 37.7 704.2 37.7 704.2 97 713.8 97 858.4 97 868 97 868 89.5 868 37.7 858.4 37.7 713.8 37.7"/><polygon class="6c16c47c-0981-4f85-a2cc-41e9bc835586" points="1091.8 37.7 947.2 37.7 937.6 37.7 937.6 97 947.2 97 1091.8 97 1101.4 97 1101.4 89.5 1101.4 37.7 1091.8 37.7"/><rect class="eeb94d34-0e2c-4ee5-95fc-d5248e1a9f4a" x="30" y="281.6" width="154.2" height="75.83"/><rect class="eeb94d34-0e2c-4ee5-95fc-d5248e1a9f4a" x="263.4" y="281.6" width="154.2" height="75.83"/><rect class="eeb94d34-0e2c-4ee5-95fc-d5248e1a9f4a" x="485.1" y="281.6" width="154.2" height="75.83"/><rect class="eeb94d34-0e2c-4ee5-95fc-d5248e1a9f4a" x="704.2" y="281.6" width="154.2" height="75.83"/><rect class="eeb94d34-0e2c-4ee5-95fc-d5248e1a9f4a" x="937.6" y="281.6" width="154.2" height="75.83"/><rect class="aaf8fb43-068f-485f-a49c-4827732b9510" x="39.6" y="281.6" width="154.2" height="75.83"/><rect class="aaf8fb43-068f-485f-a49c-4827732b9510" x="273" y="281.6" width="154.2" height="75.83"/><rect class="aaf8fb43-068f-485f-a49c-4827732b9510" x="494.6" y="281.6" width="154.2" height="75.83"/><rect class="aaf8fb43-068f-485f-a49c-4827732b9510" x="713.8" y="281.6" width="154.2" height="75.83"/><rect class="aaf8fb43-068f-485f-a49c-4827732b9510" x="947.2" y="281.6" width="154.2" height="75.83"/><rect class="eeb94d34-0e2c-4ee5-95fc-d5248e1a9f4a" x="39.6" y="347.8" width="154.2" height="9.67"/><rect class="eeb94d34-0e2c-4ee5-95fc-d5248e1a9f4a" x="273" y="347.8" width="154.2" height="9.67"/><rect class="eeb94d34-0e2c-4ee5-95fc-d5248e1a9f4a" x="494.6" y="347.8" width="154.2" height="9.67"/><rect class="eeb94d34-0e2c-4ee5-95fc-d5248e1a9f4a" x="713.8" y="347.8" width="154.2" height="9.67"/><rect class="eeb94d34-0e2c-4ee5-95fc-d5248e1a9f4a" x="947.2" y="347.8" width="154.2" height="9.67"/><path class="856c82da-4931-4fbe-849f-c7ebb42b0033" d="M97.3,1523.8c-8.5,4.7-13.5,9.6-14.6,14.6a6.3,6.3,0,0,1-.2-1.7C82.5,1532.3,87.7,1527.9,97.3,1523.8Z"/><path class="856c82da-4931-4fbe-849f-c7ebb42b0033" d="M801.2,1536.8a6.3,6.3,0,0,1-.2,1.7c-1.1-5.1-6.2-10-14.6-14.6C796,1527.9,801.2,1532.3,801.2,1536.8Z"/><path class="3acdf54d-24b5-47e3-883d-e4d3385d5b33" d="M1136.3,949.3l-5,1.4v-.3Z"/><path class="26d57cdb-85f1-4b58-9258-f71ca8b093e2" d="M1136.3,949.3l-5,1.4v-.3Z"/></g></g></svg>