<svg xmlns="http://www.w3.org/2000/svg" preserveAspectRatio="none" viewBox="0 0 1137.9 1801.7"><defs><style>.b9f80860-b69e-44c1-8db4-427ddf1c37bb{isolation:isolate;}.\38 0d09263-dd67-462d-9773-fb4a15a5c382{fill:#cdeafa;}.\36 f55b3e0-0b26-454b-8bed-d115979905a4{opacity:0.6;}.b402d2d2-a5f2-4208-954c-6c4be688801d{fill:#b0e1f0;}.f9ce8caa-807d-4c06-80c7-5e0c26dcf658{fill:#62b3e4;}.\34 d052fb6-ffe5-4a53-8ec0-e093ead09a17{fill:#1775bc;}.af65948e-f4cd-4ba5-b209-8b3984e6781f{fill:#0c395b;}.d8c499f5-04ac-4776-a7d6-0cd25b14bc75{fill:#00263d;}.\37 8ebe01e-6221-43da-a16d-f645ca45120e{fill:#73bfea;}.cdb340e6-7ed0-40e4-a606-26abdfe0e30d{fill:#e2f4fd;}.add8f660-4d01-47d9-a1eb-45f4b54c9be2{mix-blend-mode:color-burn;}.a3d46a92-6577-41de-be0e-1b1c0e41188d{fill:#010101;opacity:0.05;}</style></defs><title>home BG</title><g class="b9f80860-b69e-44c1-8db4-427ddf1c37bb"><g id="fc8f34fa-1abd-46f1-b684-e15b44eee847" data-name="BG"><rect class="80d09263-dd67-462d-9773-fb4a15a5c382" width="1139.9" height="1370.08"/><rect class="80d09263-dd67-462d-9773-fb4a15a5c382" width="1139.9" height="1803.27"/></g><g id="2e5c26d4-cf53-440d-a639-0f55052c524e" data-name="gebouwen"><g class="6f55b3e0-0b26-454b-8bed-d115979905a4"><polygon class="b402d2d2-a5f2-4208-954c-6c4be688801d" points="52.6 977.7 139.3 815.2 139.3 680.1 150.3 680.1 149.6 815.4 87 959.9 104.4 977.7 52.6 977.7"/><rect class="b402d2d2-a5f2-4208-954c-6c4be688801d" x="-23.5" y="869.4" width="206.2" height="4.56" transform="translate(-644.9 380.4) rotate(-50.6)"/><rect class="b402d2d2-a5f2-4208-954c-6c4be688801d" x="-75.2" y="853" width="262.1" height="4.56" transform="translate(-609.1 314.5) rotate(-47.1)"/><rect class="b402d2d2-a5f2-4208-954c-6c4be688801d" x="-136" y="846" width="318.7" height="4.56" transform="translate(-543.1 216.4) rotate(-40.3)"/><rect class="b402d2d2-a5f2-4208-954c-6c4be688801d" x="-206.8" y="830.9" width="391.5" height="4.56" transform="translate(-505.5 162.5) rotate(-37.2)"/><rect class="b402d2d2-a5f2-4208-954c-6c4be688801d" x="-268.7" y="817.6" width="450.2" height="4.56" transform="translate(-485.7 128) rotate(-35.6)"/><path class="b402d2d2-a5f2-4208-954c-6c4be688801d" d="M300.6,963.1l-9.9-.7c-178.1-13.4-774.3-.1-780.3,0l-.2-10c5.9-.1,581.7-12.9,771.4-.7L140.7,729.6l8.4-5.4Z"/></g><polygon class="b402d2d2-a5f2-4208-954c-6c4be688801d" points="996.7 933.1 950.5 933.1 950.5 914 940.7 914 922.8 775.9 968.1 780.1 968.1 788.8 973.8 788.8 973.8 793.1 982.3 793.1 982.3 799.4 992.9 799.4 992.9 807.3 1001.6 807.3 1001.6 915.6 997.3 915.6 997.3 933.1 996.7 933.1"/><path class="b402d2d2-a5f2-4208-954c-6c4be688801d" d="M429.9,715.4s15.5-76,15.5-152V438h6V715.4Z"/><path class="b402d2d2-a5f2-4208-954c-6c4be688801d" d="M470.1,715.4s-15.5-76-15.5-152V438h-6V715.4Z"/><rect class="b402d2d2-a5f2-4208-954c-6c4be688801d" x="430.4" y="534.3" width="39.8" height="8.7"/><rect class="b402d2d2-a5f2-4208-954c-6c4be688801d" x="449.1" y="378.1" width="1.7" height="61.33"/><rect class="b402d2d2-a5f2-4208-954c-6c4be688801d" x="434.6" y="455.9" width="31" height="2.86"/><rect class="b402d2d2-a5f2-4208-954c-6c4be688801d" x="434.6" y="463.2" width="31" height="2.86"/><rect class="b402d2d2-a5f2-4208-954c-6c4be688801d" x="434.6" y="470.6" width="31" height="2.86"/><rect class="b402d2d2-a5f2-4208-954c-6c4be688801d" x="434.6" y="477.9" width="31" height="2.86"/><rect class="b402d2d2-a5f2-4208-954c-6c4be688801d" x="440.8" y="552.1" width="18.6" height="2.08"/><rect class="b402d2d2-a5f2-4208-954c-6c4be688801d" x="440.8" y="557" width="18.6" height="2.08"/></g><g id="cdd657f4-f41f-4001-9dbf-ac36181aebd6" data-name="bergen en strepen"><path class="f9ce8caa-807d-4c06-80c7-5e0c26dcf658" d="M1354.4,1038.3,793.6,1300.5-243.6,1175.1-21.4,992.7s44.5-18.2,55.9,0c0,0,82.1-57,86.6-70.7s39.3-42.5,53.7-45.5a8.5,8.5,0,0,1,3.3-.1c11,2.2,38.7,21,44.9,2.4a19.5,19.5,0,0,0,.7-2.5c4.6-22.7,43.3-75.1,61.5-97.9s52.4-16,61.5-38.7,63.8-63.8,75.2-63.8,61.5-52.4,61.5-59.3c0-4.8,10.5-15.2,28.8-16.3,7.8-.5,17.1.8,27.5,4.9,34.8,13.7,44.2,52.4,93.1,72.9s57.7,27.4,61.3,61.5c0,0-2.2,28.4,14,15,3.8-3.2,8.6-8.6,14.7-17.3s11.1-12.6,15.6-13.5c19.4-4.2,25.5,50,25.5,50s29.6-13.7,38.8,0,29.6,38.8,45.6,52.4,18.2,36.5,45.6,36.5c8.4,0,16.6,3.7,23.9,8.7,16.5,11.4,28.5,30,28.5,30s18.2,22.8,45.6,4.6,29.6-34.2,45.6-34.2c13.8,0,10.5-15.4,18.3-21a10.3,10.3,0,0,1,4.4-1.8h1.5c13.7.5,33.2,38.9,46.5,41.1,11.7,1.9,25.1,32.3,47.3,33.8h0a27.5,27.5,0,0,0,12-1.9C1197.1,910.7,1354.4,1038.3,1354.4,1038.3Z"/><path class="4d052fb6-ffe5-4a53-8ec0-e093ead09a17" d="M1154.7,1094.2s-197.2-13-247-26.4-68.9-15.3-68.9-15.3-15.3,42.1-84.2,36.4c0,0-25.3-6.5-27.5,15.3s-19.1,45.4-24.7,47.7-24.7,22.5-24.7,22.5-74.7,10.4-108.6,39.5c0,0-137.3-94.5-214.8-94.5,0,0-30.3-.4-47.2,13.9,0,0-74.1-53.2-135.9-53.2,0,0-38-60-48.3-27.5-5.3,16.8-33.7,20.9-33.7,20.9S.4,1120.4-6.3,1140.6s-15.1,263-15.1,263l974-52.9,457.4-208.7Z"/><path class="af65948e-f4cd-4ba5-b209-8b3984e6781f" d="M-31.2,1335.7s37.2-17.6,74.5-50.9,43.1-43.1,56.8-43.1,52.9-25.5,54.9-41.2,52.9-25.5,82.3,11.8,88.2,19.6,88.2,19.6,88.2-3.2,111.7,21.9,66.6,17.3,66.6,17.3,49-7.8,99.9,27.4S719.2,1321,719.2,1321s21.2-3.8,54.4-.8,72.5-22.7,80.1-34.8,31.7-33.9,44.6-31.7,41.6-31,41.6-31,24.2-11.3,63.5-12.8,11.3-18.1,88.4-.8,99.7,10.6,99.7,10.6v104.6l-45,236.8-868.7-7.3-389.3-126.4Z"/><path class="d8c499f5-04ac-4776-a7d6-0cd25b14bc75" d="M-21.4,1463.7s200.6-19.3,387.8,50.2,503.5-79.1,503.5-79.1,177.5-137,364.6-160.1,101.7,460.2,101.7,460.2l-162.7,85.8H-89.6Z"/><path class="78ebe01e-6221-43da-a16d-f645ca45120e" d="M713.1,853.8c0,15.3-18.8,37.1-18.8,37.1s-70-15.6-54.7-41.7-38.3-64.3-26-75,0-29.1,0-29.1-18.4-9.2-21.4-13.8S583,676.2,570,675s-25.2-18.7-30-35.6-27.5-39.1-27.5-39.1c7.8-.5,17.1.8,27.5,4.9,34.8,13.7,44.2,52.4,93.1,72.9s57.7,27.4,61.3,61.5c0,0-2.2,28.4,14,15-.8,18.8.9,35.2,4.8,37.8C722.3,798.7,713.1,838.5,713.1,853.8Z"/><path class="78ebe01e-6221-43da-a16d-f645ca45120e" d="M932.5,908c-3.2,3.5-8.3,4.7-13,5.6-18.5,3.7-39.5,6.9-54.7-4.2-2.9-2.1-5.6-4.7-9-5.3s-5,.2-7.4.5a40,40,0,0,1-35.4-13.1c-6.2-7.2-9.7-16.4-16-23.6a39.8,39.8,0,0,0-23.3-13c10.3-13.5,8.9-34.6-3.2-46.6-7.5-7.5-18.5-11.6-23.8-20.8s-3.5-21-3.3-31.9a95.3,95.3,0,0,0-4.7-31.9c19.4-4.2,25.5,50,25.5,50s29.6-13.7,38.8,0,29.6,38.8,45.6,52.4,18.2,36.5,45.6,36.5c8.4,0,16.6,3.7,23.9,8.7.9,2.7,1.8,5.5,1.3,8.3-.7,5-5.1,10.7-1.5,14.2s9.3-.2,13.6,1.6S935.7,904.4,932.5,908Z"/><path class="78ebe01e-6221-43da-a16d-f645ca45120e" d="M1155.5,924q-6.3,8.1-12.8,16.1c-2.6,3.1-5.3,6.3-9,8s-8.7,1.1-10.9-2.2c-1.2-1.8-1.7-4.3-3.6-5.4s-3.8-.4-5.5-1.1c-3.6-1.4-3.5-6.3-3.8-10.2-1-15.3-15.9-25.2-28.3-34.4-10.2-7.6-20.2-17.2-22.4-29.8a35.5,35.5,0,0,1,.3-12.5l-3,4.6q-.4-3-.6-6.1a10.3,10.3,0,0,1,4.4-1.8h1.5c13.7.5,33.2,38.9,46.5,41.1C1119.9,892.1,1133.3,922.4,1155.5,924Z"/><path class="78ebe01e-6221-43da-a16d-f645ca45120e" d="M176.6,875l-2.5-.5a6.9,6.9,0,0,1,.8-5.3Z"/><path class="78ebe01e-6221-43da-a16d-f645ca45120e" d="M237.1,906.2a44.2,44.2,0,0,1-9.3,14.1c.5-3.5-4-5.3-7.5-5.6a56.6,56.6,0,0,0-22.5,2.7c-2.7.9-5.9,1.9-8.2.2s-2.1-3.3-2.4-5.3a241.3,241.3,0,0,1-3.4-27.8,4.5,4.5,0,0,0-1.1-3.2c-.8-.7-2-.7-3.1-.9a7.1,7.1,0,0,1-4.7-3.7,8.5,8.5,0,0,1,3.3-.1c11,2.2,38.7,21,44.9,2.4a23.7,23.7,0,0,1,3.5,8.5c.6,3.2.3,6.5,1.1,9.6s3.2,6.2,6.4,6.3c1.1,0,2.5-.2,3.1.8A2.5,2.5,0,0,1,237.1,906.2Z"/><path class="cdb340e6-7ed0-40e4-a606-26abdfe0e30d" d="M346.7,565.9c6.9-1.1,15.4-1.1,20.7-6.7,1.8-2.1-.4-4.2,0-6.7s2.1-3.5,3.9-2.8a99.4,99.4,0,0,0,20.5,3.5c-.7,5.6-7.4,5.3-11.6,3.9a2.7,2.7,0,0,0-1.8.7c-.7,6-5.6,8.8-10.9,8.5-8.5-.4-15.9,3.2-24.4,2.8,10.2-3.2,32.8,1.4,31.8-13.8,0-.7,1.8-.4,2.5-.4,4.6.4,9.9.7,14.1.7s8.1-1.1,12-.7c14.5,2.5,32.8-1.1,43.8,7.4-14.1,2.1-28.6,1.4-42.7,5.3l3.5-1.1a15,15,0,0,0-3.9.7c1.1-.7,2.1-.4,3.2-.7-2.1-.7-3.9.4-6,.4a22.2,22.2,0,0,1,6.7-1.1c-1.4.7-3.2.4-4.6,1.1,14.1-3.5,28.2-3.2,43.1-6.4.4,0-1.8.4-1.8-1.1l.7.7c-4.6,0-9.2-.7-13.8,0-16.6,3.5-32.8,8.1-49.1,5.3,4.2,2.1,8.8,1.8,13.4,1.4-12.7-1.8-23.3,3.5-35.3,7.8-2.8.7-5.6-1.8-8.8-2.1a23.8,23.8,0,0,0-4.9.7,3.2,3.2,0,0,0,1.8-.4c-4.9,0-9.5-3.2-13.4,1.1s-10.2,9.2-16.9,9.2c-3.5,0-5.3-4.9-7.1-7.8a14.8,14.8,0,0,1,5.3-1.4c-1.4.4-2.5.4-3.5,1.4,9.2-3.9,19.4-9.2,29.6-7.8l-1.4-.4c.4.4,1.4.7,1.4,0a2.6,2.6,0,0,0-1.8-.4,60.5,60.5,0,0,0,29.3-7.8c-5.3,8.1-18.4,6.4-26.8,9.9,3.9,0,7.4-1.4,10.9-2.1-4.6,1.1-9.2,2.5-14.1,1.1s-10.6,4.6-16.9,3.5c6.4-1.4,12.4-6,19.1-3.9-1.8-.7-3.2-1.8-5.3-1.4a24.5,24.5,0,0,1,4.6-1.8c6.7-2.1,15.5.4,20.8-5.3-1.8,6.4-10.2,4.2-15.2,4.9,8.5-.4,18.4-2.8,21.9-12,1.8-4.2,7.4,1.8,12,.6"/><path class="cdb340e6-7ed0-40e4-a606-26abdfe0e30d" d="M701.3,585.5c3.9.3,7.9,2.3,11.8.3a18.9,18.9,0,0,1-8.6,0,174.9,174.9,0,0,1,17.9-3.3l5.5-.3a41.3,41.3,0,0,1,11.1,1.4l5,1.2,5,1.7c-2-1.3-4-2.6-6.6-2,21.2,11.3,44.4,5.3,66.9.7,4.6-1.3,13.2-2.6,15.2,4h-4.6c-1.3,0-3.3.7-3.3,2,0,4.6,6,4,9,5.4a35,35,0,0,1,4.5,1.7c2.7,1.3,4.7,3.1,4.4,6.1-.7,1.3-5.3.7-8.6.7l-4.9-1c-8.3-1.7-20.3-5.7-26.2,3.6-1.3-11.3,15.2-7.9,21.9-13.2-7.3,2-14.6,1.3-21.9,2.6h.7c-7.9,3.3-14.6,7.9-23.2,8.6a44.8,44.8,0,0,1-5.8.6h-5.8a154.3,154.3,0,0,1-18.6-2.8l-6.2-1.1c-17.9,0-37.1-5.3-53.7,6-2,1.3-4-.7-6,0,2.6-24.5,38.4-13.2,55.6-13.2-21.9,0-43.7-1.3-66.2.7-4.6.7-9.3-2-14.1-3.9l-4.2-1.8a50.3,50.3,0,0,0-13.5-4.1c5.5-2.7,10.9-2.7,16.4-1.6l5.5,1.3c9.9,3.6,20.4,4.3,30.4.3-2.6,0-6-1.3-8.6-.7,10.6-1.3,21.2.7,31.8.7-1.3.7-2.6,1.3-4,.3"/><path class="cdb340e6-7ed0-40e4-a606-26abdfe0e30d" d="M-31.1,477.5l10.2-.7c3.4-.2,6.8-.4,10.2-.5,6.4.2,12.4.9,17.5,3,16.1,8.5,26.2,32.1,47.4,22.8,10.1-4.3,12.1-18.5,24.2-17.1,19.2,1.4,30.3-7.8,46.4-11.4,8.6-1.8,15.6.7,22.6,4.1l6.9,3.6c12.9,9.4,29,4.5,45.1,5.2,2,0,5,2.8,7.1,5.7,6.1-10,22.2.7,33.3-4.3-2,1.4-6.1,2.1-5,4.3s9.1-5,11.1,0c1,2.1-5,4.3-2,5.7,3,3.6,10.1-2.8,15.1.7a6.1,6.1,0,0,1,3.6,4.3,9.5,9.5,0,0,1-1,5.9,22.2,22.2,0,0,1-4.6,6.3c-10,19.2-40.3,18.5-64.5,19.9-10.1.7-16.1,14.2-25.2,10.7s-1-20.7-18.2-20.7a31.9,31.9,0,0,0-8.3,2.9c-12.7,6.4-20.6,19.3-34,16.3-33.3-7.8-72.6-4.3-99.9,12.1-7.1,4.3-18.2,2.8-26.8.7a42.9,42.9,0,0,1-6.8-2.6,24.6,24.6,0,0,1-9.9-8.3l7.9-.3,7.9-.5c21.7-2.4,35.8-15.9,57-15.9,11.1,0,23.2.7,34.3-.7,13.1-1.4,25.2-1.4,38.3-2.8,8.1-.7,23.2-3.6,20.2-8.5s-11.1-10.7,0-15c3-1.4,7.1-1.4,10.1-2.8-8.1-12.1-26.2-2.1-35.3,4.3-2,1.4-3,3.6-4,5.7v5.7c-2-5.7-1-11.4,1-17.1,0-2.1-4,.7-6.1,1.4-8.1,2.1-9.1,10.7-20.2,7.8-2,13.5-18.2,15-33.3,10-18.2-5-29.3-17.1-46.4-22.1a38.5,38.5,0,0,0-15-1.6l-10.4-.7q-41.6-2.7-83.4-4a237,237,0,0,1,95.8-7.3"/><path class="cdb340e6-7ed0-40e4-a606-26abdfe0e30d" d="M1192.1,678.9c-34.4-.4-69.4,2.6-102.8-2.1a81.6,81.6,0,0,1-15.7-4.4c-4-1-8-2-13-1.5-32,3.5-71,12.6-98,4.5,2,2.5,6,1.5,9,1.5s9-1.5,13-2c7-.5,13,.5,20,0,22-2.5,41-9.1,64-9.6-28.8,3.6-57.6,11.8-85.7,6a86.2,86.2,0,0,1-9.3-2.5c5-10.6-20-15.7-37-12.1-8-9.1,6-18.7,23-21.7-8,4-14,12.6,3,12.6a181,181,0,0,0,44-5c6-1.5,11-4,16.5-6.3l6.5-2.5,7.1-2.3c14-4.5,18,5,29,7.1-9-.5-11-5.6-18-7.6a25.6,25.6,0,0,0-11,1l-5.6,2-5.6,2.3c-19.7,7.8-54.7,17.9-72.7,7.3-5-3,10-7.6,13-12.6-2,5.6-20,10.6-12,13.6,24,9.1,48-8.6,69.6-14.6,2.2-.7,4.3-1.3,6.5-1.7a52.3,52.3,0,0,1,20.9-.4c5,1.5,13-1.5,16,0,11,4.5,5,20.2,24,16.2s31-17.2,55-19.2c-18,5-30,13.1-46,20.2-22,8.6-36-12.1-56-14.6a33.3,33.3,0,0,0-8.4.2,47.3,47.3,0,0,0-7.9,1.9c-7.7,2.5-14.7,6-23.7,8,5-4.5,12-8.1,20.6-10.8,2.1-.6,4.2-1.1,6.2-1.5s4.1-.7,6.1-.8c15-1,25-6.1,38-5.6,4,.5,3,9.6,8,8.1,28-7.1,46-20.7,75-27.3-26,5.6-43,20.2-71,22.2-7,.5-1-12.6-9-12.1-14.2.6-27.8,5.6-42.2,9.6l-8.7,2.2c-10.1,2.8-23.1,3.3-34.1,4.3,8,0,17-1,22.4-4.4l8.3-3.2c23.2-9.4,45.7-21.1,77.2-20.2,21,1,40-6.6,61.1-8.8l11.7-.7c27.3-1.4,54.8-1.9,82.3-1.5,8.3.1,18,.8,22.2,4.4-7.6,9.1-28,16.7-23.6,26.4,2.2,4.8,10.5,8.5,19.6,10.2s19.1,2,28.9,2.2a1095.9,1095.9,0,0,1-130.2,5,518.1,518.1,0,0,1,106.4-4c-27.9,11.5-61.2,18.7-95.5,24.5l-19.3,3.3c-3.5,1.5-8.5,1.5-12.5,2.5,7,0,15-1,22.3-1.3l16.1-.4h16.1l-15.2,2.4-14.3,2.1c-26,6.3-56,4.3-83,.7,23-4,47-3,71.2-5.2l12.8-.4h14.3c-3.5,3-7.4,5.9-10.5,8.6-3.7,16.2-32.7,22.3-60.4,25.9l-23.2,4c5.1-1.9,11-4,19.3-6.3,16.5-4.4,33.5-8.4,47.5-15.5-23-1-47-1-69.7-4.7-5.7-.9-10-1.9-14.3-2.9,22-13.1,45-29.8,82.3-32.8a71.5,71.5,0,0,1,7.4-.1,54,54,0,0,1,7.1.8c7.1,1.3,12.7,4,18.1,6.6l43.2,21c1.9.9,4,2,4.4,3.4s-1,2.6-2.3,3.8c-5.5,4.9-12.6,9.9-23.3,11.5s-24.8-2.7-22.7-8.2"/><polygon class="d8c499f5-04ac-4776-a7d6-0cd25b14bc75" points="262.6 1388.3 236.6 1490 288.6 1490 262.6 1388.3"/><polygon class="d8c499f5-04ac-4776-a7d6-0cd25b14bc75" points="332.6 1448.3 306.6 1550 358.6 1550 332.6 1448.3"/><polygon class="d8c499f5-04ac-4776-a7d6-0cd25b14bc75" points="443.5 1441.3 411.6 1543 475.4 1543 443.5 1441.3"/><polygon class="d8c499f5-04ac-4776-a7d6-0cd25b14bc75" points="647.3 1426.9 615.4 1528.6 679.2 1528.6 647.3 1426.9"/><polygon class="af65948e-f4cd-4ba5-b209-8b3984e6781f" points="512.1 1224.7 487.1 1304.7 537.2 1304.7 512.1 1224.7"/><polygon class="af65948e-f4cd-4ba5-b209-8b3984e6781f" points="391.1 1194.7 366.1 1274.7 416.2 1274.7 391.1 1194.7"/><polygon class="af65948e-f4cd-4ba5-b209-8b3984e6781f" points="261.1 1174.7 236.1 1254.7 286.2 1254.7 261.1 1174.7"/><polygon class="af65948e-f4cd-4ba5-b209-8b3984e6781f" points="151.1 1154.7 126.1 1234.7 176.2 1234.7 151.1 1154.7"/><polygon class="af65948e-f4cd-4ba5-b209-8b3984e6781f" points="21.1 1244.7 -3.9 1324.7 46.2 1324.7 21.1 1244.7"/><polygon class="af65948e-f4cd-4ba5-b209-8b3984e6781f" points="593.1 1254.7 568.1 1334.7 618.2 1334.7 593.1 1254.7"/><polygon class="4d052fb6-ffe5-4a53-8ec0-e093ead09a17" points="593.1 1154.7 568.1 1234.7 618.2 1234.7 593.1 1154.7"/><polygon class="4d052fb6-ffe5-4a53-8ec0-e093ead09a17" points="862.9 1024.7 818.1 1104.7 907.7 1104.7 862.9 1024.7"/><polygon class="4d052fb6-ffe5-4a53-8ec0-e093ead09a17" points="711.5 1094.7 689.1 1174.7 734 1174.7 711.5 1094.7"/><polygon class="4d052fb6-ffe5-4a53-8ec0-e093ead09a17" points="1118.6 1044.7 1096.1 1124.7 1141.1 1124.7 1118.6 1044.7"/><polygon class="4d052fb6-ffe5-4a53-8ec0-e093ead09a17" points="994.5 1014.7 966.1 1094.7 1022.8 1094.7 994.5 1014.7"/><polygon class="4d052fb6-ffe5-4a53-8ec0-e093ead09a17" points="463.1 1104.7 438.1 1184.7 488.2 1184.7 463.1 1104.7"/><polygon class="4d052fb6-ffe5-4a53-8ec0-e093ead09a17" points="343.1 1084.7 318.1 1164.7 368.2 1164.7 343.1 1084.7"/><polygon class="4d052fb6-ffe5-4a53-8ec0-e093ead09a17" points="203.1 1034.7 178.1 1114.7 228.2 1114.7 203.1 1034.7"/><polygon class="4d052fb6-ffe5-4a53-8ec0-e093ead09a17" points="93.1 1034.7 68.1 1114.7 118.2 1114.7 93.1 1034.7"/><polygon class="af65948e-f4cd-4ba5-b209-8b3984e6781f" points="703.1 1294.7 678.1 1374.7 728.2 1374.7 703.1 1294.7"/><polygon class="af65948e-f4cd-4ba5-b209-8b3984e6781f" points="854.1 1244.7 829.1 1324.7 879.2 1324.7 854.1 1244.7"/><polygon class="af65948e-f4cd-4ba5-b209-8b3984e6781f" points="964.1 1184.7 939.1 1264.7 989.2 1264.7 964.1 1184.7"/><polygon class="d8c499f5-04ac-4776-a7d6-0cd25b14bc75" points="975 1309.2 943.1 1410.9 1006.9 1410.9 975 1309.2"/><polygon class="d8c499f5-04ac-4776-a7d6-0cd25b14bc75" points="866.4 1376.1 834.5 1477.8 898.3 1477.8 866.4 1376.1"/><polygon class="d8c499f5-04ac-4776-a7d6-0cd25b14bc75" points="765.9 1439.1 734 1540.8 797.8 1540.8 765.9 1439.1"/><polygon class="d8c499f5-04ac-4776-a7d6-0cd25b14bc75" points="55.8 1410 23.9 1511.7 87.7 1511.7 55.8 1410"/><g class="add8f660-4d01-47d9-a1eb-45f4b54c9be2"><polygon class="a3d46a92-6577-41de-be0e-1b1c0e41188d" points="277.6 0 0 277.6 0 245.3 245.3 0 277.6 0"/><polygon class="a3d46a92-6577-41de-be0e-1b1c0e41188d" points="427.6 0 0 427.6 0 395.3 395.3 0 427.6 0"/><polygon class="a3d46a92-6577-41de-be0e-1b1c0e41188d" points="577.6 0 0 577.6 0 545.3 545.3 0 577.6 0"/><polygon class="a3d46a92-6577-41de-be0e-1b1c0e41188d" points="727.6 0 0 727.6 0 695.3 695.3 0 727.6 0"/><polygon class="a3d46a92-6577-41de-be0e-1b1c0e41188d" points="887.6 0 0 887.6 0 855.3 855.3 0 887.6 0"/><polygon class="a3d46a92-6577-41de-be0e-1b1c0e41188d" points="1037.6 0 0 1037.6 0 1005.3 1005.3 0 1037.6 0"/><polygon class="a3d46a92-6577-41de-be0e-1b1c0e41188d" points="1139.9 15.4 1139.9 47.7 0 1187.6 0 1155.3 1139.9 15.4"/><polygon class="a3d46a92-6577-41de-be0e-1b1c0e41188d" points="1139.9 165.4 1139.9 197.7 0 1337.6 0 1305.3 1139.9 165.4"/><polygon class="a3d46a92-6577-41de-be0e-1b1c0e41188d" points="1139.9 322.3 1139.9 354.6 0 1494.5 0 1462.2 1139.9 322.3"/><polygon class="a3d46a92-6577-41de-be0e-1b1c0e41188d" points="1139.9 472.3 1139.9 504.6 0 1644.5 0 1612.2 1139.9 472.3"/><polygon class="a3d46a92-6577-41de-be0e-1b1c0e41188d" points="1139.9 622.3 1139.9 654.6 0 1794.5 0 1762.2 1139.9 622.3"/><polygon class="a3d46a92-6577-41de-be0e-1b1c0e41188d" points="1139.9 772.3 1139.9 804.6 141.2 1803.3 108.9 1803.3 1139.9 772.3"/><polygon class="a3d46a92-6577-41de-be0e-1b1c0e41188d" points="1139.9 932.3 1139.9 964.6 301.2 1803.3 268.9 1803.3 1139.9 932.3"/><polygon class="a3d46a92-6577-41de-be0e-1b1c0e41188d" points="1139.9 1082.3 1139.9 1114.6 451.2 1803.3 418.9 1803.3 1139.9 1082.3"/><polygon class="a3d46a92-6577-41de-be0e-1b1c0e41188d" points="1139.9 1232.3 1139.9 1264.6 601.2 1803.3 568.9 1803.3 1139.9 1232.3"/><polygon class="a3d46a92-6577-41de-be0e-1b1c0e41188d" points="1139.9 1382.3 1139.9 1414.6 751.2 1803.3 718.9 1803.3 1139.9 1382.3"/><polygon class="a3d46a92-6577-41de-be0e-1b1c0e41188d" points="1308.9 1382.3 1308.9 1414.6 920.2 1803.3 887.9 1803.3 1308.9 1382.3"/></g></g></g></svg>