<svg id="0421ac01-c347-4d62-ad37-b4b9e3b68415" data-name="windBG" xmlns="http://www.w3.org/2000/svg" width="1137.9" height="1801.7" viewBox="0 0 1137.9 1801.7">
    <defs>
        <style>.e5fccf15-d14f-4868-ac6a-20cd98eb031b{fill:#cce8f9;}.\34 b4a0f90-a5e7-4f7c-bb64-4e190bb37720{fill:#7eccf2;opacity:0.9;}.b76743a9-8869-42d4-b216-3b6f58d6c21e{fill:#97daf8;}.\37 78d4388-a5b1-4964-bf80-1e536d8ff089{fill:#73bfea;}.\36 23ad63d-3c6f-448e-94c1-9338f04b0606{fill:#e1f4fd;}.\35 16a11f5-0c86-4c00-a3c6-f8990e5e21a9{opacity:0.7;}.\37 6c8875b-2018-4f64-9fc4-8c9c56803c38{fill:#73c7e5;}.\33 d1fefd1-827d-4e0f-aac3-54dfb13e97dd{fill:#78c6eb;}</style>
    </defs>
    <title>Artboard 1</title>
    <rect class="e5fccf15-d14f-4868-ac6a-20cd98eb031b" x="-3.2" y="-146.9" width="1139.9" height="1809.55" />
    <path class="4b4a0f90-a5e7-4f7c-bb64-4e190bb37720" d="M1351.3,1135.8,790.5,1398-246.7,1272.6l222.2-182.4s44.5-18.2,55.9,0c0,0,82.1-57,86.6-70.7s39.3-42.5,53.7-45.5a8.5,8.5,0,0,1,3.3-.1c11,2.2,38.7,21,44.9,2.4a19.5,19.5,0,0,0,.7-2.5c4.6-22.7,43.3-75.1,61.5-97.9s52.4-16,61.5-38.7,63.8-63.8,75.2-63.8,61.5-52.4,61.5-59.3c0-4.8,10.5-15.2,28.8-16.3,7.8-.5,17.1.8,27.5,4.9,34.8,13.7,44.2,52.4,93.1,72.9s57.7,27.4,61.3,61.5c0,0-2.2,28.4,14,15,3.8-3.2,8.6-8.6,14.7-17.3s11.1-12.6,15.6-13.5c19.4-4.2,25.5,50,25.5,50s29.6-13.7,38.8,0,29.6,38.8,45.6,52.4,18.2,36.5,45.6,36.5c8.4,0,16.6,3.7,23.9,8.7,16.5,11.4,28.5,30,28.5,30s18.2,22.8,45.6,4.6,29.6-34.2,45.6-34.2c13.8,0,10.5-15.4,18.3-21a10.3,10.3,0,0,1,4.4-1.8h1.5c13.7.5,33.2,38.9,46.5,41.1,11.7,1.9,25.1,32.3,47.3,33.8h0a27.5,27.5,0,0,0,12-1.9C1194,1008.2,1351.3,1135.8,1351.3,1135.8Z" />
    <path class="b76743a9-8869-42d4-b216-3b6f58d6c21e" d="M710,951.3c0,15.3-18.8,37.1-18.8,37.1s-70-15.6-54.7-41.7-38.3-64.3-26-75,0-29.1,0-29.1-18.4-9.2-21.4-13.8-9.2-55.1-22.2-56.3-25.2-18.7-30-35.6-27.5-39.1-27.5-39.1c7.8-.5,17.1.8,27.5,4.9,34.8,13.7,44.2,52.4,93.1,72.9s57.7,27.4,61.3,61.5c0,0-2.2,28.4,14,15-.8,18.8.9,35.2,4.8,37.8C719.2,896.2,710,936,710,951.3Z" />
    <path class="b76743a9-8869-42d4-b216-3b6f58d6c21e" d="M929.3,1005.5c-3.2,3.5-8.3,4.7-13,5.6-18.5,3.7-39.5,6.9-54.7-4.2-2.9-2.1-5.6-4.7-9-5.3s-5,.2-7.4.5a40,40,0,0,1-35.4-13.1c-6.2-7.2-9.7-16.4-16-23.6a39.8,39.8,0,0,0-23.3-13c10.3-13.5,8.9-34.6-3.2-46.6-7.5-7.5-18.5-11.6-23.8-20.8s-3.5-21-3.3-31.9a95.3,95.3,0,0,0-4.7-31.9c19.4-4.2,25.5,50,25.5,50s29.6-13.7,38.8,0,29.6,38.8,45.6,52.4,18.2,36.5,45.6,36.5c8.4,0,16.6,3.7,23.9,8.7.9,2.7,1.8,5.5,1.3,8.3-.7,5-5.1,10.7-1.5,14.2s9.3-.2,13.6,1.6S932.5,1002,929.3,1005.5Z" />
    <path class="b76743a9-8869-42d4-b216-3b6f58d6c21e" d="M1152.4,1021.5q-6.3,8.1-12.8,16.1c-2.6,3.1-5.3,6.3-9,8s-8.7,1.1-10.9-2.2c-1.2-1.8-1.7-4.3-3.6-5.4s-3.8-.4-5.5-1.1c-3.6-1.4-3.5-6.3-3.8-10.2-1-15.3-15.9-25.2-28.3-34.4-10.2-7.6-20.2-17.2-22.4-29.8a35.5,35.5,0,0,1,.3-12.5l-3,4.6q-.4-3-.6-6.1a10.3,10.3,0,0,1,4.4-1.8h1.5c13.7.5,33.2,38.9,46.5,41.1C1116.8,989.6,1130.2,1019.9,1152.4,1021.5Z" />
    <path class="778d4388-a5b1-4964-bf80-1e536d8ff089" d="M173.4,1012.5l-2.5-.5a6.9,6.9,0,0,1,.8-5.3Z" />
    <path class="b76743a9-8869-42d4-b216-3b6f58d6c21e" d="M233.9,1043.7a44.2,44.2,0,0,1-9.3,14.1c.5-3.5-4-5.3-7.5-5.6a56.6,56.6,0,0,0-22.5,2.7c-2.7.9-5.9,1.9-8.2.2s-2.1-3.3-2.4-5.3a241.3,241.3,0,0,1-3.4-27.8,4.5,4.5,0,0,0-1.1-3.2c-.8-.7-2-.7-3.1-.9a7.1,7.1,0,0,1-4.7-3.7,8.5,8.5,0,0,1,3.3-.1c11,2.2,38.7,21,44.9,2.4a23.7,23.7,0,0,1,3.5,8.5c.6,3.2.3,6.5,1.1,9.6s3.2,6.2,6.4,6.3c1.1,0,2.5-.2,3.1.8A2.5,2.5,0,0,1,233.9,1043.7Z" />
    <path class="623ad63d-3c6f-448e-94c1-9338f04b0606" d="M933.3,433.4c19.4-1.8,43.2-1.8,58.1-11.5,5-3.6-1-7.2,0-11.4s6-6,10.9-4.8c18.9,3,37.7,5.4,57.6,6-2,9.6-20.9,9-32.8,6.6a10.6,10.6,0,0,0-5,1.2c-2,10.2-15.9,15-30.8,14.4-23.8-.6-44.7,5.4-68.5,4.8,28.8-5.4,92.4,2.4,89.4-23.5,0-1.2,5-.6,7-.6,12.9.6,27.8,1.2,39.7,1.2,8.9.6,22.8-1.8,33.8-1.2,40.7,4.2,92.4-1.8,123.1,12.6-39.7,3.6-80.4,2.4-120.2,9l9.9-1.8a67.4,67.4,0,0,0-10.9,1.2c3-1.2,6-.6,8.9-1.2-6-1.2-10.9.6-16.9.6a100.2,100.2,0,0,1,18.9-1.8c-4,1.2-8.9.6-12.9,1.8,39.7-6,79.5-5.4,121.2-10.8,1,0-5,.6-5-1.8l2,1.2c-12.9,0-25.8-1.2-38.7,0-46.7,6-92.4,13.8-138,9,11.9,3.6,24.8,3,37.7,2.4-35.8-3-65.5,6-99.3,13.2-7.9,1.2-15.9-3-24.8-3.6a108.4,108.4,0,0,0-13.9,1.2,14.1,14.1,0,0,0,5-.6c-13.9,0-26.8-5.4-37.7,1.8-11.9,9.6-28.8,15.6-47.7,15.6-9.9,0-14.9-8.4-19.9-13.2,5-1.2,9.9-2.4,14.9-2.4-4,.6-7,.6-9.9,2.4,25.8-6.6,54.6-15.6,83.4-13.2-1,0-3-.6-4-.6,1,.6,4,1.2,4,0s-3-.6-5-.6A261.2,261.2,0,0,0,999.4,422c-14.9,13.8-51.6,10.8-75.5,16.8,10.9,0,20.9-2.4,30.8-3.6-12.9,1.8-25.8,4.2-39.7,1.8-15.9-3-29.8,7.8-47.7,6,17.9-2.4,34.8-10.2,53.6-6.6-5-1.2-8.9-3-14.9-2.4a100.1,100.1,0,0,1,12.9-3c18.9-3.6,43.7.6,58.6-9-5,10.8-28.8,7.2-42.7,8.4,23.8-.6,51.6-4.8,61.6-20.5,5-7.2,20.9,3,33.9,1.1" />
    <path class="623ad63d-3c6f-448e-94c1-9338f04b0606" d="M586.9,714.5c3.9.3,7.9,2.3,11.8.3a18.9,18.9,0,0,1-8.6,0,174.9,174.9,0,0,1,17.9-3.3l5.5-.3a41.3,41.3,0,0,1,11.1,1.4l5,1.2,5,1.7c-2-1.3-4-2.6-6.6-2,21.2,11.3,44.4,5.3,66.9.7,4.6-1.3,13.2-2.6,15.2,4h-4.6c-1.3,0-3.3.7-3.3,2,0,4.6,6,4,9,5.4a35,35,0,0,1,4.5,1.7c2.7,1.3,4.7,3.1,4.4,6.1-.7,1.3-5.3.7-8.6.7l-4.9-1c-8.3-1.7-20.3-5.7-26.2,3.6-1.3-11.3,15.2-7.9,21.9-13.2-7.3,2-14.6,1.3-21.9,2.6h.7c-7.9,3.3-14.6,7.9-23.2,8.6a44.8,44.8,0,0,1-5.8.6h-5.8a154.3,154.3,0,0,1-18.6-2.8l-6.2-1.1c-17.9,0-37.1-5.3-53.7,6-2,1.3-4-.7-6,0,2.6-24.5,38.4-13.2,55.6-13.2-21.9,0-43.7-1.3-66.2.7-4.6.7-9.3-2-14.1-3.9l-4.2-1.8a50.3,50.3,0,0,0-13.5-4.1c5.5-2.7,10.9-2.7,16.4-1.6l5.5,1.3c9.9,3.6,20.4,4.3,30.4.3-2.6,0-6-1.3-8.6-.7,10.6-1.3,21.2.7,31.8.7-1.3.7-2.6,1.3-4,.3" />
    <path class="623ad63d-3c6f-448e-94c1-9338f04b0606" d="M-74.2,552.6l16.4-1.2c5.5-.4,10.9-.7,16.3-.7,10.2.3,19.9,1.4,28,4.8,25.9,13.7,42.1,51.4,76,36.6,16.2-6.9,19.4-29.7,38.8-27.4,30.7,2.3,48.5-12.6,74.4-18.3,13.8-2.9,25.1,1.1,36.2,6.6l11.1,5.7c20.6,15.1,46.5,7.2,72.4,8.3,3.2,0,8.1,4.6,11.3,9.1,9.7-16,35.6,1.1,53.4-6.9-3.2,2.3-9.7,3.4-8.1,6.9,3.2,5.7,14.6-8,17.8,0,1.6,3.4-8.1,6.9-3.2,9.1,4.9,5.7,16.2-4.6,24.2,1.1a9.8,9.8,0,0,1,5.7,6.9,15.3,15.3,0,0,1-1.6,9.5,35.7,35.7,0,0,1-7.4,10c-16.1,30.7-64.6,29.6-103.5,31.9-16.2,1.1-25.9,22.9-40.4,17.1-12.9-4.6-1.6-33.1-29.1-33.1a51.2,51.2,0,0,0-13.4,4.7c-20.4,10.3-33,30.9-54.6,26.2-53.4-12.6-116.5-6.9-160.2,19.4-11.3,6.9-29.1,4.6-43,1.1a68.8,68.8,0,0,1-10.9-4.2c-6.7-3.3-12.2-7.7-15.9-13.3l12.7-.6c4.2-.2,8.4-.4,12.7-.8,34.7-3.8,57.4-25.5,91.4-25.5,17.8,0,37.2,1.1,55-1.1,21-2.3,40.4-2.3,61.5-4.6,12.9-1.1,37.2-5.7,32.4-13.7s-17.8-17.1,0-24c4.9-2.3,11.3-2.3,16.2-4.6-12.9-19.4-42.1-3.4-56.6,6.9-3.2,2.3-4.9,5.7-6.5,9.1v9.1c-3.2-9.1-1.6-18.3,1.6-27.4,0-3.4-6.5,1.1-9.7,2.3-12.9,3.4-14.6,17.1-32.4,12.6-3.2,21.7-29.1,24-53.4,16-29.1-8-46.9-27.4-74.4-35.4-8.1-2.3-16.2-3.4-24.1-2.5l-16.7-1.1q-66.7-4.3-133.7-6.4c48.2-14.2,102.2-18.3,153.6-11.7" />
    <path class="623ad63d-3c6f-448e-94c1-9338f04b0606" d="M912.6,149.8c-46.2-.6-93.1,3.5-137.9-2.8a109.5,109.5,0,0,1-21-5.9c-5.4-1.4-10.7-2.7-17.4-2-42.9,4.7-95.3,16.9-131.5,6.1,2.7,3.4,8.1,2,12.1,2s12.1-2,17.4-2.7c9.4-.7,17.4.7,26.8,0,29.5-3.4,55-12.2,85.9-12.9-38.6,4.9-77.3,15.8-114.9,8a115.7,115.7,0,0,1-12.5-3.3c6.7-14.2-26.8-21-49.6-16.3C559.2,107.9,578,95,600.8,91c-10.7,5.4-18.8,16.9,4,16.9,20.1,0,40.3-2,59-6.8,8.1-2,14.8-5.4,22.1-8.4l8.7-3.4c3-1.1,6.1-2.1,9.5-3.1,18.8-6.1,24.2,6.8,38.9,9.5-12.1-.7-14.8-7.5-24.2-10.2a34.4,34.4,0,0,0-14.8,1.4l-7.5,2.7L689,92.7c-26.5,10.5-73.4,24-97.6,9.8-6.7-4.1,13.4-10.2,17.4-16.9-2.7,7.5-26.8,14.2-16.1,18.3C624.9,116,657.1,92.3,686,84.3c2.9-.9,5.8-1.7,8.8-2.3a70.1,70.1,0,0,1,28.1-.5c6.7,2,17.4-2,21.5,0,14.8,6.1,6.7,27.1,32.2,21.7s41.6-23,73.8-25.7c-24.2,6.8-40.3,17.6-61.7,27.1-29.5,11.5-48.3-16.3-75.1-19.6a44.7,44.7,0,0,0-11.3.2,63.4,63.4,0,0,0-10.6,2.6c-10.3,3.3-19.7,8-31.8,10.8,6.7-6.1,16.1-10.8,27.7-14.5,2.8-.8,5.6-1.5,8.4-2s5.5-.9,8.2-1.1c20.1-1.4,33.5-8.1,51-7.5,5.4.7,4,12.9,10.7,10.8,37.6-9.5,61.7-27.8,100.6-36.6-34.9,7.5-57.7,27.1-95.3,29.8-9.4.7-1.3-16.9-12.1-16.3-19.1.7-37.4,7.6-56.6,12.9-3.8,1.1-7.7,2.1-11.7,3-13.6,3.7-31,4.4-45.8,5.8,10.7,0,22.8-1.4,30.1-5.8l11.2-4.3C717.4,60.2,747.7,44.4,790,45.6c28.2,1.4,53.7-8.8,82-11.8l15.7-.9c36.7-1.9,73.6-2.6,110.4-2,11.2.2,24.2,1.1,29.7,5.9-10.2,12.3-37.5,22.4-31.7,35.4,2.9,6.5,14.1,11.3,26.3,13.7s25.7,2.7,38.8,2.9a1470.4,1470.4,0,0,1-174.8,6.7,695.2,695.2,0,0,1,142.7-5.4c-37.4,15.4-82.1,25.1-128.1,32.9-9.2,1.6-18.5,3.1-25.9,4.4-4.7,2-11.4,2-16.8,3.3,9.4,0,20.1-1.4,30-1.7l21.6-.6h21.6l-20.4,3.3-19.3,2.9c-34.9,8.4-75.2,5.7-111.4,1,30.9-5.4,63.1-4.1,95.5-6.9l17.2-.5h19.2c-4.7,4-9.9,7.9-14.1,11.5-5,21.7-43.9,29.9-81,34.7l-31.1,5.4c6.8-2.6,14.7-5.3,25.9-8.4,22.1-5.9,44.9-11.3,63.7-20.8-30.9-1.4-63.1-1.4-93.5-6.2-7.7-1.2-13.4-2.6-19.2-3.9,29.5-17.6,60.4-40,110.4-44a95.9,95.9,0,0,1,9.9-.1,72.4,72.4,0,0,1,9.6,1c9.5,1.7,17,5.3,24.2,8.8l57.9,28.2c2.6,1.3,5.4,2.7,5.9,4.5s-1.3,3.5-3.1,5.1c-7.4,6.6-16.9,13.3-31.2,15.5s-33.2-3.6-30.4-11" />
    <g class="516a11f5-0c86-4c00-a3c6-f8990e5e21a9">
        <path class="76c8875b-2018-4f64-9fc4-8c9c56803c38" d="M188.7,1272.6l.5-40.6c18.9,1.6,34.8-2.7,49.8-9.2,3-1.3,6-2.7,9.3-3.9,19.9-8.4,42.9-2.4,62.9-10.4,9-3,12-16,22-20,7-2,14-3,20-6a62.8,62.8,0,0,0,8.6-4.5c19.4-11.9,34.4-33.6,53.1-45.6a28.6,28.6,0,0,1,9.3-4.6,27.5,27.5,0,0,0,15.2-6.9,42.8,42.8,0,0,0,6.1-6.5c11.7-17,18.7-40,11.7-60,10-1,19,3,28.1,3.3a59.4,59.4,0,0,1,9.4,2.1c14.6,2.2,20.5,15.1,28.5,26.3a65.7,65.7,0,0,0,5.1,6.4c18.8,2.5,32.4,12,41.7,25.7a76.5,76.5,0,0,1,5.1,8.8c4.1,11.5,13.1,26.5,1.1,36.5,10,5,20,12,29,18,5,4,4,17,13,19,11,4,22,5,29.8,13,2.5,2.4,5.1,5,7.8,7.5s5.6,5,8.6,7.4c27.1,21.5,69.7,38.7,117.6,40.3l-1.2,145.9c-.1,11-.5,22.7-11.3,32.1-16.2,14-49.6,18.1-79.6,20.7a3821.3,3821.3,0,0,1-453.9,11.6c-67-2.3-140.9-8.2-184.1-36.2-25.2-16.3-35.9-37.9-39.1-59.1-4-26.1,2.8-53.3,27.8-75.7s70.3-38.9,118.5-38.4" />
    </g>
    <path class="3d1fefd1-827d-4e0f-aac3-54dfb13e97dd" d="M574.5,1228.2c5,2.5,14-1.3,16,7.6,5-2.5,6-10.1,9-15.2,1.5-3.6,2.8-7.2,4.1-10.9,11.9-34.3,17.5-72.5,41.9-93.1,11-10.1,3,25.4,9,38.1,4,8.9,14,5.1,20-1.3,11-11.4,18-30.4,33-33,13-2.5,20,15.2,24,27.9,2,7.6,0,21.6,7,21.6,24,1.3,49-12.7,73-6.3l4.4,1.2h0a84.2,84.2,0,0,0,26.9,1.8c3.4-.3,6.9-.8,10.4-1.3,23.3-4.2,63.3.9,64.3-38.4,1-27.9,6-57.1,21-76.1,19-21.6,41,21.6,63.7,23.3l10,3.7a58.9,58.9,0,0,1,9.4,4.7c15,8.9,25,33,43.5,41.2a84,84,0,0,1,9.5,9.3c16.1-27,42-57.1,65.6-41.4,6.7,4.5,11.7,12.1,16.4,19.6,60,95.3,108.2,206.7,119.3,327.8s-20.1,252.7-95.1,329c-64.8,65.9,4.6,145.8-78.1,155.6-138.4,16.3-433.4,25.1-572.4,25.5-177,.5-404.5-40-579.1-76.6-56.3-11.8-63.8-58.7-114-93.2-35.6-24.5-70.8-69-63.4-119.6,2.6-17.9,10.4-33.9,18.1-49.3q33.7-67.7,69-134.1c18.7-35.1,46.1-74.3,78-68.4A721.6,721.6,0,0,1-18,1289.2c.6,11.2,11.4,14.9,20,11.3a17.8,17.8,0,0,0,7.7-6c6.8-9.2,7.8-21.9,12.8-32.1,14-29.2,23-63.4,45-85a42.2,42.2,0,0,1,6.3-4.9,22,22,0,0,1,7-3.1c18.7-3.4,35.7,14.4,54.7,18.2a15.8,15.8,0,0,0,8-2.5c13-17.8,29-25.4,47-25.4a27.9,27.9,0,0,0,6.7-3.7c10.7-7.7,19.6-21.5,31.3-14.1,10,7.6,14,26.6,11,41.9-2,10.1-9,17.8-10,27.9-2,20.3,15,41.9,31,40.6,4-1.3,9-2.5,11-8.9,10,7.6,18,19,29,24.1,4,2.5,11,3.8,12,3.8,29-24.1,54-46.9,78-2.5,2,5.1,2,11.4,2,17.8,25,1.3,34,35.5,43,60.9,2,6.3,17-7.6,26-14s15-19,24-29.2c20-19,40-34.3,57-57.1a97.4,97.4,0,0,1,24-19" />
</svg>