<svg xmlns="http://www.w3.org/2000/svg" width="1139.4" height="1801.8" viewBox="0 0 1139.4 1801.8"><defs><style>.\37 3bf701c-1d67-48e7-a3ab-87265eb873ce{fill:#f7efcb;}.\35 6d9719c-e9ef-4698-8f05-714550427975{fill:#efca7f;}.\34 0b87114-d210-4171-ae98-072a862aa8f5,.\35 6d9719c-e9ef-4698-8f05-714550427975,.c0e4b8ea-d8bd-4341-9650-c649dfeffab2{opacity:0.9;}.\31 91134a5-2349-4391-b8fc-5c0db33c0766,.c0e4b8ea-d8bd-4341-9650-c649dfeffab2{fill:#ffdb9c;}.d9a2566f-f918-4b71-8ac0-fbb221952aa0{fill:#73bfea;}.a79932a9-a44d-42e5-b55d-73f44d0324e8{opacity:0.7;}.\30 0312db9-76a4-4699-ba8c-1ea05e98582b{fill:#fff;}.\30 f452154-a7b7-43c4-aebc-114c31484c30{fill:#e2af73;}.\34 1e30e70-2811-4281-9791-3e3d7b5ffbca,.\36 e158751-f81d-4ad5-a251-845ca665b3fc{fill:#eac179;}.\35 11ce576-431d-4c9e-bf93-fc0a8669c4ac{fill:#fff1b6;}.\36 e158751-f81d-4ad5-a251-845ca665b3fc{opacity:0.2;}</style></defs><title>steenBG</title><g id="9d837746-298c-42da-ad96-deff84d4da39" data-name="Layer 2"><g id="166326fc-29ed-49db-b65b-327306d7cf2f" data-name="steenBG"><g id="d1464704-40f0-42af-990e-5c3b4a597ee2" data-name="bg"><path class="73bf701c-1d67-48e7-a3ab-87265eb873ce" d="M1137.3,1139.6V495.3l2-1V249.2h-2V.1H0V1538.2H1137.3Z"/></g><path class="56d9719c-e9ef-4698-8f05-714550427975" d="M1139.4,273.3V494.4l-2,1-344,161.3-9.6-1.2h-1.1l-738-89.5-3-.4-41.4-5V341.8c13.1-2.7,28.5-3.3,34.5,6.4,0,0,82-57.1,86.6-70.8s39.2-42.6,53.7-45.6a8.4,8.4,0,0,1,3.3-.1c11,2.2,38.7,21,44.9,2.4a19.5,19.5,0,0,0,.7-2.5c4.6-22.7,43.3-75.3,61.5-98.2,15.6-19.6,42.9-17.3,56.2-30.6a24.2,24.2,0,0,0,5.4-8.2c5.2-13.1,25.5-32.2,43.9-46.2,13.7-10.3,26.4-17.8,31.3-17.8S445.6,15.3,460.4.1H587.1c11.5,12,25.1,24,45.8,32.7,48.8,20.6,57.7,27.4,61.2,61.7,0,0-1.3,17.6,5.9,18.6,1.7.2,3.9-.4,6.6-2.5l1.4-1.1c3.8-3.2,8.6-8.6,14.7-17.3S733,80.4,737.2,79l1.2-.3,1.4-.2h0c17.2-1.2,23.3,44.6,23.9,49.9v.5s12.7-5.9,24.1-6.1h0c6-.1,11.5,1.4,14.6,6.1,9.1,13.7,29.6,38.8,45.6,52.6s18.2,36.5,45.5,36.5c8.4,0,16.6,3.7,23.9,8.8C934,238.1,946,256.8,946,256.8a30.7,30.7,0,0,0,4.8,4.5l1.7,1.3,2.8,1.8a31.5,31.5,0,0,0,10.9,3.8l1.5.2h0a30.7,30.7,0,0,0,9.5-.6h0l3.2-.9a44.6,44.6,0,0,0,11-5.4,133.9,133.9,0,0,0,24.6-21.4c7.3-7.7,11.9-12.9,20.9-12.9,13.8,0,10.5-15.5,18.3-21.1a10.2,10.2,0,0,1,4.4-1.8h1.5c13.6.5,33.2,39,46.4,41.2a13.9,13.9,0,0,1,6.1,3.2h0c4.1,3.3,8.6,8.6,13.6,14l1.4,1.5h0l1.1,1.2a76.4,76.4,0,0,0,7.4,6.7Z"/><path class="c0e4b8ea-d8bd-4341-9650-c649dfeffab2" d="M711.6,208.9c0,15.4-18.8,37.2-18.8,37.2s-70.2-15.7-54.8-41.8c11.1-18.9-14.1-44.4-24.1-61a32.2,32.2,0,0,1-3.3-7v-.5c-.7-2.8-.4-5.1,1.5-6.7a15.5,15.5,0,0,0,4.2-5.7c4.5-10.5-4.2-23.5-4.2-23.5s-18.4-9.2-21.5-13.8-9.2-55.2-22.3-56.4c-11.5-1-22.4-14.8-28-29.7h45.3c11.5,12,25.2,24,46,32.8,49,20.6,57.9,27.4,61.4,61.7,0,0-1.5,19.8,7.3,18.6,1.8-.2,4-1.3,6.7-3.5,0,.4,0,.7,0,1.1-.2,5.3-.2,10.4,0,15.1.1,1.6.2,3.2.3,4.6s.4,4.2.7,6.1c.6,4.1,1.4,7.4,2.5,9.3a4.9,4.9,0,0,0,1.4,1.7C720.8,153.6,711.6,193.5,711.6,208.9Z"/><g class="40b87114-d210-4171-ae98-072a862aa8f5"><path class="191134a5-2349-4391-b8fc-5c0db33c0766" d="M931.4,263.2c-3.2,3.6-8.3,4.7-13,5.6-18.5,3.7-39.6,6.9-54.9-4.2-2.9-2.1-5.6-4.7-9.1-5.3s-5,.2-7.4.5a40.1,40.1,0,0,1-35.5-13.1c-6.3-7.2-9.8-16.5-16-23.7a39.9,39.9,0,0,0-23.3-13.1c10.3-13.5,8.9-34.7-3.2-46.7-7.6-7.5-18.5-11.6-23.9-20.8s-3.6-21.1-3.3-31.9a95.5,95.5,0,0,0-4.7-32c19.5-4.3,25.5,50.1,25.5,50.1s29.7-13.7,38.8,0,29.7,38.8,45.7,52.6,18.3,36.6,45.7,36.6c8.4,0,16.6,3.7,24,8.8.9,2.7,1.8,5.5,1.3,8.3-.7,5-5.1,10.7-1.5,14.3s9.3-.2,13.6,1.7S934.7,259.7,931.4,263.2Z"/></g><path class="d9a2566f-f918-4b71-8ac0-fbb221952aa0" d="M173.7,270.3l-2.5-.5a6.9,6.9,0,0,1,.8-5.3Z"/><g class="40b87114-d210-4171-ae98-072a862aa8f5"><path class="191134a5-2349-4391-b8fc-5c0db33c0766" d="M234.4,301.5a44.3,44.3,0,0,1-9.3,14.1c.5-3.5-4-5.4-7.5-5.6a56.8,56.8,0,0,0-22.6,2.7c-2.7.9-5.9,2-8.2.2s-2.1-3.3-2.4-5.3a241.8,241.8,0,0,1-3.4-27.9,4.6,4.6,0,0,0-1.1-3.2c-.8-.7-2-.7-3.1-1a7.1,7.1,0,0,1-4.7-3.7,8.5,8.5,0,0,1,3.3-.1c11,2.2,38.8,21,45,2.4a23.8,23.8,0,0,1,3.5,8.6c.6,3.2.3,6.5,1.1,9.6s3.2,6.2,6.4,6.3c1.1,0,2.5-.2,3.1.8A2.5,2.5,0,0,1,234.4,301.5Z"/></g><g class="a79932a9-a44d-42e5-b55d-73f44d0324e8"><path class="00312db9-76a4-4699-ba8c-1ea05e98582b" d="M935.9,278.6l4.9-.6h.1A14.1,14.1,0,0,1,935.9,278.6Z"/></g><g class="a79932a9-a44d-42e5-b55d-73f44d0324e8"><path class="00312db9-76a4-4699-ba8c-1ea05e98582b" d="M975.7,256.6c-5.3,2.4-11.6,3.6-18.1,4.2Z"/></g><g class="a79932a9-a44d-42e5-b55d-73f44d0324e8"><path class="00312db9-76a4-4699-ba8c-1ea05e98582b" d="M978.9,255.9l-3.2.7a29.4,29.4,0,0,0,4-2.2A8.7,8.7,0,0,1,978.9,255.9Z"/></g><g class="a79932a9-a44d-42e5-b55d-73f44d0324e8"><path class="00312db9-76a4-4699-ba8c-1ea05e98582b" d="M978.3,256.6l.6-.7,3.3-.8Z"/></g><g class="a79932a9-a44d-42e5-b55d-73f44d0324e8"><path class="00312db9-76a4-4699-ba8c-1ea05e98582b" d="M1047.7,267.6a174.8,174.8,0,0,1,26.6.2C1065.3,268.1,1056.3,268.6,1047.7,267.6Z"/></g><g class="a79932a9-a44d-42e5-b55d-73f44d0324e8"><path class="00312db9-76a4-4699-ba8c-1ea05e98582b" d="M1095.2,267.7a28,28,0,0,1,6.2-.9Z"/></g><g class="a79932a9-a44d-42e5-b55d-73f44d0324e8"><path class="00312db9-76a4-4699-ba8c-1ea05e98582b" d="M1103.3,267.4l-6.1.9A17.7,17.7,0,0,1,1103.3,267.4Z"/></g><g class="a79932a9-a44d-42e5-b55d-73f44d0324e8"><path class="00312db9-76a4-4699-ba8c-1ea05e98582b" d="M1103.4,267.4l2.4-.2Z"/></g><g class="a79932a9-a44d-42e5-b55d-73f44d0324e8"><path class="00312db9-76a4-4699-ba8c-1ea05e98582b" d="M1137.3,263.3l2-.2v1.3h-2l-7.4.6c-10.6.9-21.2,2.1-31.7,3.8l10-1.8h-2l-3.2-.4h-.6c-4.4-.1-8.5,1-13.2,1a101,101,0,0,1,18.9-1.8h-.5c7-.8,14.1-1.5,21.1-2.1Z"/></g><g class="a79932a9-a44d-42e5-b55d-73f44d0324e8"><path class="00312db9-76a4-4699-ba8c-1ea05e98582b" d="M1137.3,249.1c-7.9-.1-15.8-.3-23.5-.6h0c-6.4-.3-12.6-.7-18.6-1.3-11-.6-24.9,1.8-33.9,1.2h-1.5a7.5,7.5,0,0,0,2.5-4.2,409.5,409.5,0,0,1-46.2-4.3l-11.5-1.8c-5-1.2-10,1.8-11,4.8a6.9,6.9,0,0,0,.8,4.4,41.1,41.1,0,0,1-12.3,7.7l13.4-3.1a4.5,4.5,0,0,1-1.9,2.4c-10.1,6.5-24.2,8.6-38.3,9.9l-19.9,1.6,14.5-3.3h2.6c10.5,0,21.2-.6,25.8-5.9a113,113,0,0,1-25.5,5.3l4.7-1.1-6.8.5c-6.2.3-12.5.4-18.5.9a93.7,93.7,0,0,0-11.2,1.3,100.8,100.8,0,0,0-12.9,3c5.1-.5,8.7.7,12.7,1.8h0l.6.2h-1.1l2,.3h.3l-1.1-.3,2.1.4h-2.6l-.6-.2h-.1a67.7,67.7,0,0,0-21.5,1c-5.3.6-10.5,1.4-15.8,2.4h0c-11.4,2.2-22.5,5.1-33.3,8-4.7.1-9.4,1.3-14.2,2.4,5,4.8,10,13.3,19.9,13.3,18.9,0,35.8-6,47.8-15.7,10.9-7.2,23.8-1.8,37.7-1.8a74.6,74.6,0,0,1,9.1-.6c9,.6,16.9,4.8,24.9,3.6,25.1-5.4,48.1-11.7,72.9-13.4a63.1,63.1,0,0,1-11.2-2.2c30.2,3.2,60.4.9,90.9-2.8l9.9-1.2,2-.3V249.2ZM944.1,262.6l-7.1.3C939.1,262.7,941.5,262.6,944.1,262.6ZM840.4,282.2c2.6-1.6,5.2-1.8,8.4-2.2Zm87.9-11.4,1.2-.2h.7Zm18.2-1.5h-.8l3.7-.5Zm30.9-1.6h0l-9.5.6h0l-5.4.3,3.9-.5c4.7-.5,9.5-1,14.3-1.3l7.6-.3C984.7,267,981.1,267.4,977.3,267.7Z"/></g><g class="a79932a9-a44d-42e5-b55d-73f44d0324e8"><path class="00312db9-76a4-4699-ba8c-1ea05e98582b" d="M588.2,126.7c3.9.3,7.9,2.3,11.9.3a18.9,18.9,0,0,1-8.6,0,175.3,175.3,0,0,1,17.9-3.3l5.5-.3a41.4,41.4,0,0,1,11.1,1.4l5,1.2,5,1.7c-2-1.3-4-2.7-6.6-2,21.2,11.3,44.5,5.3,67,.7,4.6-1.3,13.3-2.7,15.3,4H707c-1.3,0-3.3.7-3.3,2,0,4.6,6,4,9.1,5.4a35.1,35.1,0,0,1,4.5,1.7c2.7,1.3,4.7,3.2,4.4,6.1-.7,1.3-5.3.7-8.6.7l-4.9-1c-8.4-1.7-20.3-5.7-26.3,3.6-1.3-11.3,15.3-8,21.9-13.3-7.3,2-14.6,1.3-21.9,2.7h.7c-8,3.3-14.6,8-23.2,8.6a44.9,44.9,0,0,1-5.8.6c-1.9.1-3.9.1-5.8,0a154.7,154.7,0,0,1-18.6-2.8l-6.3-1.1c-17.9,0-37.2-5.3-53.8,6-2,1.3-4-.7-6,0,2.7-24.6,38.5-13.3,55.8-13.3-21.9,0-43.8-1.3-66.4.7-4.6.7-9.3-2-14.1-4l-4.2-1.9a50.4,50.4,0,0,0-13.5-4.1c5.5-2.7,11-2.7,16.5-1.6l5.5,1.3c9.9,3.6,20.5,4.3,30.5.3-2.7,0-6-1.3-8.6-.7,10.6-1.3,21.2.7,31.9.7-1.3.7-2.7,1.3-4,.3Z"/></g><g class="a79932a9-a44d-42e5-b55d-73f44d0324e8"><path class="00312db9-76a4-4699-ba8c-1ea05e98582b" d="M395.8,65.3a35.8,35.8,0,0,1-7.4,10.1c-8.6,16.4-26.3,23.7-46.8,27.3-18.2,3.2-38.6,3.5-56.9,4.6-16.2,1.2-25.9,22.9-40.5,17.2-13-4.6-1.6-33.2-29.2-33.2A51.3,51.3,0,0,0,201.6,96c-20.5,10.3-33.1,31-54.7,26.2C98.7,110.9,42.6,114.4,0,134.4V104.7c10.4-3.8,21.1-6.6,33.4-6.6,17.8,0,37.3,1.2,55.1-1.1,21.1-2.3,40.5-2.3,61.6-4.6,13-1.1,37.3-5.7,32.4-13.7s-17.8-17.2,0-24.1c4.9-2.3,11.3-2.3,16.2-4.6-13-19.5-42.2-3.4-56.7,6.9-3.2,2.3-4.9,5.7-6.5,9.2v9.2c-3.2-9.2-1.6-18.3,1.6-27.5,0-3.4-6.5,1.1-9.7,2.3-13,3.4-14.6,17.2-32.4,12.6-3.2,21.8-29.2,24.1-53.5,16C25.4,74.3,12.7,66.4,0,58.8V27.7C18.9,44,34.8,66.8,62.5,54.7,78.8,47.8,82,24.9,101.5,27.2c30.8,2.3,48.7-12.6,74.6-18.3,13.8-2.9,25.1,1.2,36.3,6.6l11.2,5.7c20.7,15.2,46.6,7.2,72.5,8.3,3.3,0,8.1,4.6,11.3,9.2,9.7-16,35.7,1.1,53.5-6.9-3.2,2.3-9.7,3.4-8.1,6.9,3.2,5.7,14.6-8,17.8,0,1.6,3.4-8.1,6.9-3.2,9.2,4.7,5.5,15.5-3.9,23.4.6l.8.5a9.8,9.8,0,0,1,5.7,6.9C398,58.7,397.4,62,395.8,65.3Z"/></g><g class="a79932a9-a44d-42e5-b55d-73f44d0324e8"><path class="00312db9-76a4-4699-ba8c-1ea05e98582b" d="M606.1,17.1a89.8,89.8,0,0,0,9,2.2C611.8,19.5,608.2,19.7,606.1,17.1Z"/></g><g class="a79932a9-a44d-42e5-b55d-73f44d0324e8"><path class="00312db9-76a4-4699-ba8c-1ea05e98582b" d="M980.2,15.8c-7.5,6.6-16.9,13.4-31.3,15.5s-33.3-3.6-30.5-11l-3.7,1.5H894.8c-13,14.4-45,20.6-75.8,24.6l-31.1,5.4c6.8-2.6,14.8-5.4,26-8.5,22.2-5.9,45-11.3,63.9-20.8l-9.1-.4c-31.1.6-62.2,1-92.2-3.2a110,110,0,0,1-21-5.9c-5.4-1.4-10.7-2.7-17.5-2-39.6,4.4-87.2,15.1-122.8,8.3l3.1-.2c5.4,0,12.1-2,17.5-2.7,9.4-.7,17.5.7,26.9,0,7.5-.9,14.7-2.1,21.9-3.4-17.1,1.8-34.2,2-51-1.4a114.5,114.5,0,0,1-12.6-3.3,7.4,7.4,0,0,0-.8-8.2H964.8l12.5,6.1c2.6,1.3,5.4,2.7,5.9,4.5S981.9,14.2,980.2,15.8Z"/></g><g class="a79932a9-a44d-42e5-b55d-73f44d0324e8"><path class="0f452154-a7b7-43c4-aebc-114c31484c30" d="M189.1,531l.5-40.7c18.9,1.6,34.9-2.7,49.9-9.2,3-1.3,6-2.7,9.3-3.9,20-8.4,43-2.4,63.1-10.4,9-3,12-16,22.1-20,7-2,14-3,20.1-6a63,63,0,0,0,8.7-4.5c19.5-11.9,34.5-33.7,53.2-45.7a28.7,28.7,0,0,1,9.3-4.6,27.5,27.5,0,0,0,15.2-6.9,42.9,42.9,0,0,0,6.1-6.5c11.7-17.1,18.7-40.1,11.7-60.2,10-1,19,3,28.1,3.3a59.5,59.5,0,0,1,9.4,2.1c14.7,2.2,20.6,15.1,28.5,26.3a65.8,65.8,0,0,0,5.1,6.4c18.8,2.5,32.5,12.1,41.8,25.7a76.7,76.7,0,0,1,5.2,8.8c4.1,11.6,13.1,26.6,1.1,36.6,10,5,20,12,29.1,18,5,4,4,17,13,19,11,4,22.1,5,29.9,13.1,2.5,2.4,5.1,5,7.8,7.5s5.6,5,8.7,7.4c27.1,21.6,69.8,38.8,117.8,40.4l-1.2,146.3c-.1,11.1-.5,22.8-11.4,32.1-16.2,14-49.7,18.2-79.8,20.7a3830.3,3830.3,0,0,1-455,11.6c-67.2-2.3-141.2-8.3-184.5-36.2-25.3-16.3-36-38-39.2-59.2-4-26.1,2.8-53.4,27.9-75.8s70.5-39,118.8-38.5Z"/></g><path class="41e30e70-2811-4281-9791-3e3d7b5ffbca" d="M1139.4,347.4V494.4l-2,1V921.9H.3V560.2a17.4,17.4,0,0,0,5.2-1.3,17.8,17.8,0,0,0,7.7-6C20,543.7,21,531,26,520.8c14-29.3,23-63.6,45-85.2a41.4,41.4,0,0,1,6.3-5,22,22,0,0,1,7-3.1c18.7-3.4,35.7,14.4,54.7,18.3a15.8,15.8,0,0,0,8-2.5c13-17.8,29-25.4,47-25.4a27.8,27.8,0,0,0,6.7-3.7c10.7-7.7,19.6-21.5,31.3-14.1,10,7.6,14,26.7,11,42-2,10.2-9,17.8-10,28a36.9,36.9,0,0,0,1.2,13.4l.3,1h0c4.5,14.9,17.3,27.3,29.5,26.3,4-1.3,9-2.5,11-8.9,10,7.6,18,19.1,29,24.2,4,2.5,11,3.8,12,3.8,29-24.2,54-47,77.9-2.5,2,5.1,2,11.4,2,17.8,25,1.3,34,35.6,43,61,2,6.4,17-7.6,26-14s15-19.1,24-29.2c20-19.1,40-34.3,57-57.2a96.8,96.8,0,0,1,24-19.1h8c5,2.5,14-1.3,16,7.6,5-2.6,6-10.2,9-15.3q2.2-5.4,4.1-11c1.9-5.5,3.7-11.1,5.4-16.8l.7-2.5c8.5-28.6,15.9-57.2,35.8-74.1,11-10.2,3,25.4,9,38.2,4,8.9,14,5.1,20-1.3,11-11.4,18-30.5,33-33.1,13-2.5,20,15.3,24,28,2,7.6,0,21.6,7,21.6,24,1.3,49-12.7,72.9-6.4l4.4,1.2h0a83.7,83.7,0,0,0,26.9,1.8c3.4-.3,6.8-.8,10.4-1.3,23.2-4.2,63.2.9,64.2-38.5,1-28,6-57.2,21-76.3,19-21.6,41,21.6,63.6,23.4l10,3.7a59.3,59.3,0,0,1,9.4,4.7c15,8.9,25,33.1,43.5,41.3a83.8,83.8,0,0,1,9.5,9.3c14.9-25,38.1-52.7,60.2-44.3Z"/><path class="511ce576-431d-4c9e-bf93-fc0a8669c4ac" d="M1137.3,1139.6V817.9h-1.8l-6.5.2c-31.6-2-60,6-89.3,14-18.5,5.6-35.6-3.7-53.1-7.7-68.8-14.5-136.3,13.4-204.7,22.3-8,.5-16.9,2-25.1-.1-70.4-19.6-139.7-.2-211.4-3.3-14.2-.8-29.6-14.5-48.6-13.1l-7.3-.4-14.6-.9-7.4-.4c-36.7-5.2-73.9-4.5-112.1-5.4-57.4-1.4-112.8-11.6-169.8-9.5-48,2.3-94.8,7.1-142.6,10.1l-7.7,1-14.9,2.2L13.1,828,.3,830.1H0v971.6H1137.3V1139.6Z"/><path class="6e158751-f81d-4ad5-a251-845ca665b3fc" d="M61.5,979.7s83.1-14.1,258.2-5.6c0,0,104.9,10.3,177,8.8,0,0-88.8,12-211.1.6S61.5,979.7,61.5,979.7Z"/><path class="6e158751-f81d-4ad5-a251-845ca665b3fc" d="M1137.3,1134.7v4.9c-26.8.5-60,0-97.2-2.8-96.2-7.2-176.4-1.9-176.4-1.9s65.4-9.5,203.2-4.4C1067,1130.5,1099.3,1133.1,1137.3,1134.7Z"/><path class="6e158751-f81d-4ad5-a251-845ca665b3fc" d="M603.4,1158.8s-64.4-21.5-202.9-12.5c0,0-83.3,12.9-140,9.4,0,0,69.1,18.6,166.1,4.5S603.4,1158.8,603.4,1158.8Z"/><path class="6e158751-f81d-4ad5-a251-845ca665b3fc" d="M1027.3,1337.9s-87.4-16.1-272.6-16.8c0,0-111.1,4.1-187.2-.5,0,0,93.5,14.5,223,10.2S1027.3,1337.9,1027.3,1337.9Z"/><path class="6e158751-f81d-4ad5-a251-845ca665b3fc" d="M913,1609s-39.9-28.8-136.6-30.4c0,0-59.7,7.2-97.8-1.3,0,0,43.7,26,113,18.6S913,1609,913,1609Z"/><path class="6e158751-f81d-4ad5-a251-845ca665b3fc" d="M203.3,1469.5c-3.7-.4-91.7-9.4-203.3-7.8v-7.9C134.3,1457.4,200,1468.9,203.3,1469.5Z"/><path class="6e158751-f81d-4ad5-a251-845ca665b3fc" d="M977.8,980.7s-17.5-10.4-56.8-5.4c0,0-23.9,6.6-39.7,5.1,0,0,18.9,8.9,46.7,1.6S977.8,980.7,977.8,980.7Z"/></g></g></svg>