<svg id="63cf8ceb-d6fe-4b0e-b87c-8b647de06540" data-name="vuurBG" xmlns="http://www.w3.org/2000/svg" width="1137.9" height="1801.7" viewBox="0 0 1137.9 1801.7">
    <defs>
        <style>.e4f8f8b3-d181-41fb-9a13-37f6746d74f0{fill:#50130e;}.\36 344b8af-fb45-4805-a044-2284036d7680{fill:#660a12;}.\37 47e355a-7cc1-43af-9251-37c538933e58{opacity:0.7;}.\35 cb772e8-3098-4814-9d7e-fdaa5a79881d{fill:#7b1315;}.ba2e59d2-c53c-43c8-8299-ce4d4f1371fb{fill:#7e1416;}.\34 ee31a8e-0aec-4897-89c2-65bb4f86a684{fill:#5e2215;}.\36 857eebf-e9b7-4cc2-bf92-1eae0bff88f0{fill:#411115;opacity:0.5;}</style>
    </defs>
    <title>Artboard 1</title>
    <rect class="e4f8f8b3-d181-41fb-9a13-37f6746d74f0" x="-0.1" y="-0.2" width="1139.9" height="1809.56" />
    <path class="6344b8af-fb45-4805-a044-2284036d7680" d="M1139.8,237.4V458L793.5,619.9l-9.6-1.2L44.3,529.3-.1,524V305.8c13.1-2.7,28.5-3.3,34.5,6.4,0,0,82.1-57,86.6-70.7S160.3,199,174.8,196a8.5,8.5,0,0,1,3.3-.1c11,2.2,38.7,21,44.9,2.4a19.5,19.5,0,0,0,.7-2.5c4.6-22.7,43.3-75.1,61.5-97.9s52.4-16,61.5-38.7S410.6-4.7,422-4.7,483.5-57.1,483.5-64c0-4.8,10.5-15.2,28.8-16.3,7.8-.5,17.1.8,27.5,4.9C574.7-61.7,584.1-22.9,633-2.4s57.7,27.4,61.3,61.6c0,0-2.2,28.4,14,15,3.8-3.1,8.6-8.6,14.7-17.3S734,44.3,738.5,43.3c19.4-4.2,25.5,50,25.5,50s29.6-13.7,38.8,0,29.6,38.8,45.6,52.4,18.2,36.5,45.6,36.5c8.4,0,16.6,3.7,23.9,8.7,16.5,11.4,28.5,30,28.5,30s18.2,22.8,45.6,4.6,29.6-34.2,45.6-34.2c13.8,0,10.5-15.4,18.3-21a10.3,10.3,0,0,1,4.4-1.8h1.5c13.7.5,33.2,38.9,46.5,41.1C1116.8,211,1126.4,228.1,1139.8,237.4Z" />
    <g class="747e355a-7cc1-43af-9251-37c538933e58">
        <path class="5cb772e8-3098-4814-9d7e-fdaa5a79881d" d="M191.8,494.5l.5-40.6c18.9,1.6,34.8-2.7,49.8-9.2,3-1.3,6-2.7,9.3-3.9,19.9-8.4,42.9-2.4,62.9-10.4,9-3,12-16,22-20,7-2,14-3,20-6a62.8,62.8,0,0,0,8.6-4.5c19.4-11.9,34.4-33.6,53.1-45.6a28.6,28.6,0,0,1,9.3-4.6,27.5,27.5,0,0,0,15.2-6.9,42.8,42.8,0,0,0,6.1-6.5c11.7-17,18.7-40,11.7-60,10-1,19,3,28.1,3.3a59.4,59.4,0,0,1,9.4,2.1c14.6,2.2,20.5,15.1,28.5,26.3a65.7,65.7,0,0,0,5.1,6.4c18.8,2.5,32.4,12,41.7,25.7a76.5,76.5,0,0,1,5.1,8.8c4.1,11.5,13.1,26.5,1.1,36.5,10,5,20,12,29,18,5,4,4,17,13,19,11,4,22,5,29.8,13,2.5,2.4,5.1,5,7.8,7.5s5.6,5,8.6,7.4c27.1,21.5,69.7,38.7,117.6,40.3l-1.2,145.9c-.1,11-.5,22.7-11.3,32.1-16.2,14-49.6,18.1-79.6,20.7A3821.3,3821.3,0,0,1,238.9,701c-67-2.3-140.9-8.2-184.1-36.2-25.2-16.3-35.9-37.9-39.1-59.1-4-26.1,2.8-53.3,27.8-75.7s70.3-38.9,118.5-38.4Z" />
    </g>
    <path class="ba2e59d2-c53c-43c8-8299-ce4d4f1371fb" d="M1139.8,311.4V884.5H-.1V523.7a17.5,17.5,0,0,0,5.2-1.3,17.8,17.8,0,0,0,7.7-6c6.8-9.2,7.8-21.9,12.8-32.1,14-29.2,23-63.4,45-85a41.9,41.9,0,0,1,6.3-4.9,22,22,0,0,1,7-3.1c18.7-3.4,35.7,14.4,54.7,18.2a15.8,15.8,0,0,0,8-2.5c13-17.8,29-25.4,47-25.4a27.8,27.8,0,0,0,6.7-3.7c10.7-7.7,19.6-21.5,31.3-14.1,10,7.6,14,26.6,11,41.9-2,10.1-9,17.8-10,27.9a37.3,37.3,0,0,0,1.5,14.3h0c4.5,14.9,17.3,27.3,29.5,26.3,4-1.3,9-2.5,11-8.9,10,7.6,18,19,29,24.1,4,2.5,11,3.8,12,3.8,29-24.1,54-46.9,78-2.5,2,5.1,2,11.4,2,17.8,25,1.3,34,35.5,43,60.9,2,6.3,17-7.6,26-14s15-19,24-29.2c20-19,40-34.3,57-57.1a97.1,97.1,0,0,1,24-19h8c5,2.5,14-1.3,16,7.6,5-2.5,6-10.2,9-15.2q2.2-5.4,4.1-10.9c2.2-6.3,4.2-12.7,6.1-19.2,8.5-28.6,15.9-57.1,35.8-73.9,11-10.2,3,25.4,9,38.1,4,8.9,14,5.1,20-1.3,11-11.4,18-30.5,33-33,13-2.5,20,15.2,24,27.9,2,7.6,0,21.6,7,21.6,24,1.3,49-12.7,73-6.3l4.4,1.1h0a84.1,84.1,0,0,0,26.9,1.8c3.4-.3,6.9-.8,10.4-1.3,23.3-4.2,63.3.9,64.3-38.4,1-27.9,6-57.1,21-76.1,19-21.6,41,21.6,63.7,23.4l10,3.6a58.9,58.9,0,0,1,9.4,4.7c15,8.9,25,33,43.5,41.2a83.7,83.7,0,0,1,9.5,9.3C1092.9,329,1117.1,300.4,1139.8,311.4Z" />
    <path class="4ee31a8e-0aec-4897-89c2-65bb4f86a684" d="M-126.2,866.6c36.5-31,92.7-30.3,141-38.7l7.1-1.1,14.8-2.1,7.7-1c47.8-2.8,94.4-7.4,142.3-9.6,56.9-1.9,112.1,8,169.4,9.4,38.2.9,75.2.3,111.9,5.4l7.4.4,14.6.9,7.2.4c19-1.3,34.4,11.9,48.5,12.7,71.5,3,140.7-15.5,210.9,3.4,8.2,2,17.1.6,25.1.1,68.3-8.5,135.5-35.2,204.2-21.2,17.5,3.9,34.5,12.9,52.9,7.5,29.2-7.7,57.5-15.3,89.1-13.3l6.5-.2c36.2-.9,67.7-1,89.2-.2,86.1,3.3,25.3,1028.3,25.3,1028.3L-2.3,1870l-534.3-571.3,393.9-410.2,5.2-5.4c5.5-3.9,7.9-9.9,10.8-15.1Z" />
    <path class="6857eebf-e9b7-4cc2-bf92-1eae0bff88f0" d="M979.4,942.2s-82.9-14.1-257.6-5.6c0,0-104.7,10.3-176.6,8.8,0,0,88.6,11.9,210.6.6S979.4,942.2,979.4,942.2Z" />
    <path class="6857eebf-e9b7-4cc2-bf92-1eae0bff88f0" d="M179,1097s-65.3-9.5-202.7-4.4c0,0-82.3,6.5-138.9,5.3,0,0,69.8,8.1,165.7,1S179,1097,179,1097Z" />
    <path class="6857eebf-e9b7-4cc2-bf92-1eae0bff88f0" d="M438.7,1120.8s64.3-21.5,202.4-12.5c0,0,83.1,12.9,139.6,9.4,0,0-68.9,18.6-165.7,4.5S438.7,1120.8,438.7,1120.8Z" />
    <path class="6857eebf-e9b7-4cc2-bf92-1eae0bff88f0" d="M15.8,1299.5s87.2-16.1,271.9-16.7c0,0,110.9,4.1,186.8-.5,0,0-93.3,14.5-222.4,10.2S15.8,1299.5,15.8,1299.5Z" />
    <path class="6857eebf-e9b7-4cc2-bf92-1eae0bff88f0" d="M837.8,1430.9s87.2-16.1,271.9-16.7c0,0,110.9,4.1,186.8-.5,0,0-93.3,14.5-222.4,10.2S837.8,1430.9,837.8,1430.9Z" />
    <path class="6857eebf-e9b7-4cc2-bf92-1eae0bff88f0" d="M65.3,943.1s17.5-10.3,56.7-5.4c0,0,23.8,6.6,39.6,5.1,0,0-18.9,8.9-46.6,1.6S65.3,943.1,65.3,943.1Z" />
</svg>