<svg id="5f1bbd49-d8e3-4be0-9fa9-c8ebe78fcf1d" data-name="waterBG" xmlns="http://www.w3.org/2000/svg" width="1137.9" height="1801.7" viewBox="0 0 1137.9 1801.7">
    <defs>
        <style>.\30 cd00e32-66f4-4c7a-b25a-1506417c7c6f{fill:#3879be;}.\32 4df18ec-74e8-4563-ba32-80b9ba38c49d{fill:#2f60ad;}.\34 1a22cdd-c6cb-430b-b358-7dc4d2321c01{fill:#73bfea;}.fca5752f-0f47-4c9e-8b60-23496d0cf8e4{fill:#225296;}.\36 56a2604-a844-4c7c-b48a-a41c982dae10{fill:#104d8a;}.e0f12a8a-ee42-4485-90fe-21d01337a3e2{fill:#fbeaa6;}.\30 213fbd4-57fd-448d-bc5d-b2a387d37bf4{fill:#eac179;opacity:0.2;}</style>
    </defs>
    <title>Artboard 1</title>
    <g id="870dee6e-2c8d-42c6-9128-9cd988c0d1b1" data-name="Layer 4">
        <rect class="0cd00e32-66f4-4c7a-b25a-1506417c7c6f" x="-3.1" y="2.4" width="1139.9" height="1229.56" />
    </g>
    <path class="24df18ec-74e8-4563-ba32-80b9ba38c49d" d="M1136.8,291.3V401.6L790.5,482.5l-9.6-.6L41.3,437.2l-44.4-2.7V325.5c13.1-1.3,28.5-1.6,34.5,3.2,0,0,82.1-28.5,86.6-35.3s39.3-21.3,53.7-22.7a16.8,16.8,0,0,1,3.3-.1c11,1.1,38.7,10.5,44.9,1.2a6.4,6.4,0,0,0,.7-1.2c4.6-11.3,43.3-37.6,61.5-49s52.4-8,61.5-19.4,63.8-31.9,75.2-31.9,61.5-26.2,61.5-29.6,10.5-7.6,28.8-8.1a123.6,123.6,0,0,1,27.5,2.4c34.8,6.8,44.2,26.2,93.1,36.5s57.7,13.7,61.3,30.8c0,0-2.2,14.2,14,7.5a77.7,77.7,0,0,0,14.7-8.6c6-4.3,11.1-6.3,15.6-6.8,19.4-2.1,25.5,25,25.5,25s29.6-6.8,38.8,0,29.6,19.4,45.6,26.2,18.2,18.2,45.6,18.2a73.6,73.6,0,0,1,23.9,4.4,111.4,111.4,0,0,1,28.5,15s18.2,11.4,45.6,2.3,29.6-17.1,45.6-17.1c13.8,0,10.5-7.7,18.3-10.5a17.1,17.1,0,0,1,4.4-.9h1.5c13.7.3,33.2,19.5,46.5,20.6C1113.8,278.1,1123.4,286.6,1136.8,291.3Z" />
    <path class="41a22cdd-c6cb-430b-b358-7dc4d2321c01" d="M173.5,187.1l-2.5-.5a6.9,6.9,0,0,1,.8-5.3Z" />
    <path class="fca5752f-0f47-4c9e-8b60-23496d0cf8e4" d="M1135.8,317.8V830.2H-4.1v-393a29.2,29.2,0,0,0,5.2-.7,20.1,20.1,0,0,0,7.7-3.4c6.8-5.2,7.8-12.3,12.8-18,14-16.4,23-35.7,45-47.8a47.4,47.4,0,0,1,6.3-2.8,32.4,32.4,0,0,1,7-1.8c18.7-1.9,35.7,8.1,54.7,10.2a25,25,0,0,0,8-1.4c13-10,29-14.3,47-14.3a38,38,0,0,0,6.7-2.1c10.7-4.3,19.6-12.1,31.3-7.9,10,4.3,14,15,11,23.6-2,5.7-9,10-10,15.7a12.5,12.5,0,0,0,1.5,8.1h0c4.5,8.4,17.3,15.3,29.5,14.8,4-.7,9-1.4,11-5,10,4.3,18,10.7,29,13.6a54.6,54.6,0,0,0,12,2.1c29-13.6,54-26.4,78-1.4,2,2.9,2,6.4,2,10,25,.7,34,20,43,34.3,2,3.6,17-4.3,26-7.9s15-10.7,24-16.4c20-10.7,40-19.3,57-32.1a108.6,108.6,0,0,1,24-10.7h8c5,1.4,14-.7,16,4.3,5-1.4,6-5.7,9-8.6,1.5-2,2.8-4.1,4.1-6.1s4.2-7.2,6.1-10.8c8.5-16.1,15.9-32.1,35.8-41.6,11-5.7,3,14.3,9,21.4,4,5,14,2.9,20-.7,11-6.4,18-17.1,33-18.6,13-1.4,20,8.6,24,15.7,2,4.3,0,12.1,7,12.1,24,.7,49-7.1,73-3.6l4.4.6h0a148.2,148.2,0,0,0,26.9,1l10.4-.7c23.3-2.4,63.3.5,64.3-21.6,1-15.7,6-32.1,21-42.8,19-12.1,41,12.1,63.7,13.1l10,2.1a83.6,83.6,0,0,1,9.4,2.7c15,5,25,18.6,43.5,23.2a81,81,0,0,1,9.5,5.2C1088.9,327.7,1113.1,311.6,1135.8,317.8Z" />
    <path class="656a2604-a844-4c7c-b48a-a41c982dae10" d="M121.2,661l.9-35.9c35,1.4,64.5-2.4,92.2-8.1,5.6-1.2,11.2-2.3,17.2-3.4,36.9-7.4,79.5-2.1,116.6-9.2,16.7-2.7,22.2-14.1,40.8-17.7,13-1.8,25.9-2.7,37.1-5.3,5.5-1.1,10.8-2.4,16-3.9,36-10.5,63.7-29.7,98.4-40.3a86.1,86.1,0,0,1,17.3-4,84.8,84.8,0,0,0,28.1-6.1,102.8,102.8,0,0,0,11.3-5.6c13.5-8.6,27.5-.6,41.5,2.1,6,0,10-6.7,5-13.4,19,16.1,30-10.7,43.4-24.4a19.2,19.2,0,0,1,6.6-1.7,20.1,20.1,0,0,1,13,3.3c22,13.4,44,20.1,68,17.3,3.7.6,7.4,1.4,10.8,2.2,17.4,4.1,31.4,10.2,42.2,17.7a82.2,82.2,0,0,1,9.5,7.8c7.6,10.2,24.3,23.5,2,32.3,18.5,4.4,37.1,10.6,53.7,15.9,9.3,3.5,7.4,15,24.1,16.8,20.4,3.5,40.8,4.4,55.2,11.5l14.4,6.6q7.6,3.3,16,6.6c50.1,19,129.1,34.2,217.8,35.7l-2.3,129c-.2,9.8-1,20.1-21,28.3-29.9,12.3-91.9,16-147.5,18.3-277.8,11.3-560.4,14.8-841.1,10.2-124.2-2-261-7.3-341.1-32-46.7-14.4-66.5-33.5-72.5-52.2-7.4-23,5.1-47.1,51.5-66.9S-23.2,658,66,658.5Z" />
    <path class="e0f12a8a-ee42-4485-90fe-21d01337a3e2" d="M1235,813.8c-36.6-32.1-92.8-31.5-141.1-40.3l-7.1-1.1-14.8-2.2-7.7-1c-47.8-3-94.4-7.8-142.3-10.1-56.9-2.1-112.1,8.1-169.4,9.5-38.2.9-75.2.2-111.9,5.4l-7.4.4-14.6.9-7.2.4c-19-1.3-34.4,12.3-48.5,13.1-71.5,3-140.7-16.2-210.9,3.3-8.2,2-17.1.6-25.1.1-68.3-8.8-135.6-36.6-204.3-22.2-17.5,4-34.5,13.3-52.9,7.7-29.3-8-57.5-15.9-89.1-13.9l-6.5-.2c-36.2-1-67.7-1.2-89.2-.3-86.1,3.3,6.2,1054.8,6.2,1054.8l1251.3,24.7L1646,1261.8,1251.6,836.5l-5.2-5.6c-5.5-4.1-7.9-10.3-10.8-15.7Z" />
    <path class="0213fbd4-57fd-448d-bc5d-b2a387d37bf4" d="M61.5,954.8s82.9-14.1,257.6-5.6c0,0,104.7,10.3,176.6,8.8,0,0-88.6,11.9-210.6.6S61.5,954.8,61.5,954.8Z" />
    <path class="0213fbd4-57fd-448d-bc5d-b2a387d37bf4" d="M861.9,1109.7s65.3-9.5,202.7-4.4c0,0,82.3,6.5,138.9,5.3,0,0-69.8,8.1-165.7,1S861.9,1109.7,861.9,1109.7Z" />
    <path class="0213fbd4-57fd-448d-bc5d-b2a387d37bf4" d="M602.1,1133.5S537.8,1112,399.7,1121c0,0-83.1,12.9-139.6,9.4,0,0,68.9,18.6,165.7,4.5S602.1,1133.5,602.1,1133.5Z" />
    <path class="0213fbd4-57fd-448d-bc5d-b2a387d37bf4" d="M1025,1312.2s-87.2-16.1-271.9-16.7c0,0-110.9,4.1-186.8-.5,0,0,93.3,14.5,222.4,10.2S1025,1312.2,1025,1312.2Z" />
    <path class="0213fbd4-57fd-448d-bc5d-b2a387d37bf4" d="M203,1443.5s-87.2-16.1-271.9-16.7c0,0-110.9,4.1-186.8-.5,0,0,93.3,14.5,222.4,10.2S203,1443.5,203,1443.5Z" />
    <path class="0213fbd4-57fd-448d-bc5d-b2a387d37bf4" d="M975.6,955.8s-17.5-10.3-56.7-5.4c0,0-23.8,6.6-39.6,5.1,0,0,18.9,8.9,46.6,1.6S975.6,955.8,975.6,955.8Z" />
</svg>